<svg width="current" height="current" viewBox="0 0 260 237" fill="none" xmlns="http://www.w3.org/2000/svg">
<path d="M249.6 0H64.48C64.48 0 11.5537 34.8476 11.5537 65.4623C11.5537 120.766 141.325 142.785 58.24 197.972L0 236.656H193.44C193.44 236.656 260 204.376 260 159.288C260 114.2 182.383 104.562 182.383 65.4623C182.383 26.3625 249.6 0 249.6 0Z" fill="#61A3F3"/>
<g filter="url(#filter0_d_1566_4193)">
<ellipse cx="117.923" cy="143.069" rx="34.7205" ry="55.8008" fill="white"/>
</g>
<g filter="url(#filter1_d_1566_4193)">
<ellipse cx="187.345" cy="143.069" rx="34.7205" ry="55.8008" fill="white"/>
</g>
<ellipse cx="125.358" cy="154.229" rx="17.3603" ry="24.8004" fill="#151515"/>
<ellipse cx="187.346" cy="154.229" rx="17.3603" ry="24.8004" fill="#151515"/>
<defs>
<filter id="filter0_d_1566_4193" x="78.9848" y="76.725" width="86.3098" height="128.47" filterUnits="userSpaceOnUse" color-interpolation-filters="sRGB">
<feFlood flood-opacity="0" result="BackgroundImageFix"/>
<feColorMatrix in="SourceAlpha" type="matrix" values="0 0 0 0 0 0 0 0 0 0 0 0 0 0 0 0 0 0 127 0" result="hardAlpha"/>
<feOffset dx="4.21721" dy="-2.1086"/>
<feGaussianBlur stdDeviation="4.21721"/>
<feComposite in2="hardAlpha" operator="out"/>
<feColorMatrix type="matrix" values="0 0 0 0 0 0 0 0 0 0 0 0 0 0 0 0 0 0 0.25 0"/>
<feBlend mode="normal" in2="BackgroundImageFix" result="effect1_dropShadow_1566_4193"/>
<feBlend mode="normal" in="SourceGraphic" in2="effect1_dropShadow_1566_4193" result="shape"/>
</filter>
<filter id="filter1_d_1566_4193" x="148.407" y="76.725" width="86.3098" height="128.47" filterUnits="userSpaceOnUse" color-interpolation-filters="sRGB">
<feFlood flood-opacity="0" result="BackgroundImageFix"/>
<feColorMatrix in="SourceAlpha" type="matrix" values="0 0 0 0 0 0 0 0 0 0 0 0 0 0 0 0 0 0 127 0" result="hardAlpha"/>
<feOffset dx="4.21721" dy="-2.1086"/>
<feGaussianBlur stdDeviation="4.21721"/>
<feComposite in2="hardAlpha" operator="out"/>
<feColorMatrix type="matrix" values="0 0 0 0 0 0 0 0 0 0 0 0 0 0 0 0 0 0 0.25 0"/>
<feBlend mode="normal" in2="BackgroundImageFix" result="effect1_dropShadow_1566_4193"/>
<feBlend mode="normal" in="SourceGraphic" in2="effect1_dropShadow_1566_4193" result="shape"/>
</filter>
</defs>
</svg>
