<svg viewBox="0 0 124 19" fill="none" xmlns="http://www.w3.org/2000/svg">
<path d="M59.7278 16.27C58.7678 16.27 57.9008 16.102 57.1268 15.766C56.3588 15.424 55.7258 14.938 55.2278 14.308C54.7358 13.672 54.4238 12.916 54.2918 12.04L56.8478 11.662C57.0278 12.406 57.3998 12.979 57.9638 13.381C58.5278 13.783 59.1698 13.984 59.8898 13.984C60.2918 13.984 60.6818 13.921 61.0598 13.795C61.4378 13.669 61.7468 13.483 61.9868 13.237C62.2328 12.991 62.3558 12.688 62.3558 12.328C62.3558 12.196 62.3348 12.07 62.2928 11.95C62.2568 11.824 62.1938 11.707 62.1038 11.599C62.0138 11.491 61.8848 11.389 61.7168 11.293C61.5548 11.197 61.3478 11.11 61.0958 11.032L57.7298 10.042C57.4778 9.97 57.1838 9.868 56.8478 9.736C56.5178 9.604 56.1968 9.415 55.8848 9.169C55.5728 8.923 55.3118 8.599 55.1018 8.197C54.8978 7.789 54.7958 7.276 54.7958 6.658C54.7958 5.788 55.0148 5.065 55.4528 4.489C55.8908 3.913 56.4758 3.484 57.2078 3.202C57.9398 2.92 58.7498 2.782 59.6378 2.788C60.5318 2.8 61.3298 2.953 62.0318 3.247C62.7338 3.541 63.3218 3.97 63.7958 4.534C64.2698 5.092 64.6118 5.776 64.8218 6.586L62.1758 7.036C62.0798 6.616 61.9028 6.262 61.6448 5.974C61.3868 5.686 61.0778 5.467 60.7178 5.317C60.3638 5.167 59.9918 5.086 59.6018 5.074C59.2178 5.062 58.8548 5.116 58.5128 5.236C58.1768 5.35 57.9008 5.518 57.6848 5.74C57.4748 5.962 57.3698 6.226 57.3698 6.532C57.3698 6.814 57.4568 7.045 57.6308 7.225C57.8048 7.399 58.0238 7.54 58.2878 7.648C58.5518 7.756 58.8218 7.846 59.0978 7.918L61.3478 8.53C61.6838 8.62 62.0558 8.74 62.4638 8.89C62.8718 9.034 63.2618 9.238 63.6338 9.502C64.0118 9.76 64.3208 10.102 64.5608 10.528C64.8068 10.954 64.9298 11.494 64.9298 12.148C64.9298 12.844 64.7828 13.453 64.4888 13.975C64.2008 14.491 63.8108 14.92 63.3188 15.262C62.8268 15.598 62.2688 15.85 61.6448 16.018C61.0268 16.186 60.3878 16.27 59.7278 16.27ZM72.1523 16.27C70.8563 16.27 69.7373 15.988 68.7953 15.424C67.8593 14.86 67.1363 14.071 66.6263 13.057C66.1223 12.043 65.8703 10.864 65.8703 9.52C65.8703 8.176 66.1223 6.997 66.6263 5.983C67.1363 4.969 67.8593 4.18 68.7953 3.616C69.7373 3.052 70.8563 2.77 72.1523 2.77C73.4483 2.77 74.5643 3.052 75.5003 3.616C76.4423 4.18 77.1653 4.969 77.6693 5.983C78.1793 6.997 78.4343 8.176 78.4343 9.52C78.4343 10.864 78.1793 12.043 77.6693 13.057C77.1653 14.071 76.4423 14.86 75.5003 15.424C74.5643 15.988 73.4483 16.27 72.1523 16.27ZM72.1523 13.966C72.9743 13.978 73.6583 13.801 74.2043 13.435C74.7503 13.069 75.1583 12.55 75.4283 11.878C75.7043 11.206 75.8423 10.42 75.8423 9.52C75.8423 8.62 75.7043 7.84 75.4283 7.18C75.1583 6.52 74.7503 6.007 74.2043 5.641C73.6583 5.275 72.9743 5.086 72.1523 5.074C71.3303 5.062 70.6463 5.239 70.1003 5.605C69.5543 5.971 69.1433 6.49 68.8673 7.162C68.5973 7.834 68.4623 8.62 68.4623 9.52C68.4623 10.42 68.5973 11.2 68.8673 11.86C69.1433 12.52 69.5543 13.033 70.1003 13.399C70.6463 13.765 71.3303 13.954 72.1523 13.966ZM85.1873 16.27C84.1433 16.27 83.2253 16.06 82.4333 15.64C81.6413 15.214 81.0233 14.617 80.5793 13.849C80.1353 13.081 79.9133 12.178 79.9133 11.14V3.058L82.3973 3.04V11.122C82.3973 11.548 82.4693 11.935 82.6133 12.283C82.7573 12.631 82.9553 12.931 83.2073 13.183C83.4653 13.435 83.7623 13.63 84.0983 13.768C84.4403 13.9 84.8033 13.966 85.1873 13.966C85.5833 13.966 85.9493 13.897 86.2853 13.759C86.6273 13.621 86.9243 13.426 87.1763 13.174C87.4283 12.922 87.6233 12.622 87.7613 12.274C87.9053 11.926 87.9773 11.542 87.9773 11.122V3.04H90.4613V11.14C90.4613 12.178 90.2393 13.081 89.7953 13.849C89.3513 14.617 88.7333 15.214 87.9413 15.64C87.1493 16.06 86.2313 16.27 85.1873 16.27ZM92.6562 16V3.04H95.1402L100.774 11.68V3.04H103.258V16H100.774L95.1402 7.36V16H92.6562ZM105.452 16V3.04H109.646C109.748 3.04 109.958 3.043 110.276 3.049C110.594 3.055 110.9 3.076 111.194 3.112C112.238 3.238 113.123 3.601 113.849 4.201C114.575 4.801 115.127 5.563 115.505 6.487C115.883 7.411 116.072 8.422 116.072 9.52C116.072 10.618 115.883 11.629 115.505 12.553C115.127 13.477 114.575 14.239 113.849 14.839C113.123 15.439 112.238 15.802 111.194 15.928C110.9 15.964 110.594 15.985 110.276 15.991C109.958 15.997 109.748 16 109.646 16H105.452ZM107.936 13.696H109.646C109.808 13.696 110.027 13.693 110.303 13.687C110.579 13.675 110.828 13.648 111.05 13.606C111.614 13.492 112.073 13.228 112.427 12.814C112.787 12.4 113.051 11.902 113.219 11.32C113.393 10.738 113.48 10.138 113.48 9.52C113.48 8.872 113.39 8.257 113.21 7.675C113.036 7.093 112.769 6.601 112.409 6.199C112.049 5.797 111.596 5.542 111.05 5.434C110.828 5.386 110.579 5.359 110.303 5.353C110.027 5.347 109.808 5.344 109.646 5.344H107.936V13.696ZM118.634 18.43L118.778 17.404C119.066 17.428 119.3 17.38 119.48 17.26C119.66 17.146 119.783 16.978 119.849 16.756C119.921 16.54 119.936 16.288 119.894 16H118.634V13.552H121.082V16C121.082 16.864 120.881 17.518 120.479 17.962C120.077 18.406 119.462 18.562 118.634 18.43ZM118.634 8.728V6.28H121.082V8.728H118.634Z" fill="#FFA7A7"/>
<path d="M57.1268 15.766L56.9645 16.1304L56.9679 16.1319L57.1268 15.766ZM55.2278 14.308L54.9123 14.5521L54.9149 14.5553L55.2278 14.308ZM54.2918 12.04L54.2334 11.6454L53.8378 11.7039L53.8974 12.0994L54.2918 12.04ZM56.8478 11.662L57.2354 11.5682L57.1498 11.2141L56.7894 11.2674L56.8478 11.662ZM57.9638 13.381L58.1953 13.0562L57.9638 13.381ZM61.0598 13.795L60.9336 13.4166L61.0598 13.795ZM61.9868 13.237L61.7047 12.9549L61.7013 12.9585L61.9868 13.237ZM62.2928 11.95L61.9093 12.0596L61.9125 12.0708L61.9163 12.0818L62.2928 11.95ZM62.1038 11.599L62.4102 11.3437L62.1038 11.599ZM61.7168 11.293L61.5134 11.6362L61.5189 11.6393L61.7168 11.293ZM61.0958 11.032L61.2137 10.6509L61.2083 10.6493L61.0958 11.032ZM57.7298 10.042L57.8423 9.65934L57.8393 9.65849L57.7298 10.042ZM56.8478 9.736L56.6996 10.1063L56.7019 10.1072L56.8478 9.736ZM55.8848 9.169L56.1317 8.85579V8.85579L55.8848 9.169ZM55.1018 8.197L54.745 8.3754L54.7482 8.38168L55.1018 8.197ZM55.4528 4.489L55.7703 4.73043V4.73043L55.4528 4.489ZM57.2078 3.202L57.3512 3.5742L57.3512 3.5742L57.2078 3.202ZM59.6378 2.788L59.6431 2.38917L59.6405 2.38915L59.6378 2.788ZM62.0318 3.247L62.1858 2.8791L62.0318 3.247ZM63.7958 4.534L63.4904 4.79062L63.4918 4.79223L63.7958 4.534ZM64.8218 6.586L64.8886 6.97921L65.3169 6.90638L65.2079 6.4859L64.8218 6.586ZM62.1758 7.036L61.7869 7.12488L61.8709 7.49243L62.2426 7.42921L62.1758 7.036ZM61.6448 5.974L61.3477 6.24014L61.6448 5.974ZM60.7178 5.317L60.5621 5.68426L60.5644 5.68518L60.7178 5.317ZM59.6018 5.074L59.5893 5.47266L59.5895 5.47267L59.6018 5.074ZM58.5128 5.236L58.6409 5.61373L58.6448 5.61236L58.5128 5.236ZM57.6848 5.74L57.3989 5.46182L57.395 5.4659L57.6848 5.74ZM57.6308 7.225L57.3439 7.50226L57.3487 7.50704L57.6308 7.225ZM58.2878 7.648L58.4388 7.27884H58.4388L58.2878 7.648ZM59.0978 7.918L59.2025 7.5331L59.1984 7.53206L59.0978 7.918ZM61.3478 8.53L61.2431 8.91488L61.2446 8.91528L61.3478 8.53ZM62.4638 8.89L62.3261 9.26439L62.331 9.26612L62.4638 8.89ZM63.6338 9.502L63.4029 9.82733L63.4089 9.83144L63.6338 9.502ZM64.5608 10.528L64.2132 10.7238L64.2154 10.7275L64.5608 10.528ZM64.4888 13.975L64.1412 13.7793L64.1405 13.7806L64.4888 13.975ZM63.3188 15.262L63.5437 15.5914L63.5464 15.5895L63.3188 15.262ZM61.6448 16.018L61.5411 15.6329L61.5401 15.6331L61.6448 16.018ZM59.7278 15.8711C58.8149 15.8711 58.003 15.7116 57.2856 15.4001L56.9679 16.1319C57.7985 16.4924 58.7206 16.6689 59.7278 16.6689V15.8711ZM57.289 15.4016C56.5771 15.0846 55.9968 14.6376 55.5407 14.0607L54.9149 14.5553C55.4548 15.2384 56.1404 15.7634 56.9645 16.1304L57.289 15.4016ZM55.5432 14.0639C55.097 13.4871 54.8091 12.7963 54.6862 11.9806L53.8974 12.0994C54.0384 13.0357 54.3745 13.8569 54.9123 14.5521L55.5432 14.0639ZM54.3501 12.4346L56.9061 12.0566L56.7894 11.2674L54.2334 11.6454L54.3501 12.4346ZM56.4601 11.7558C56.6601 12.5825 57.0817 13.2421 57.7323 13.7058L58.1953 13.0562C57.7178 12.7159 57.3954 12.2295 57.2354 11.5682L56.4601 11.7558ZM57.7323 13.7058C58.3666 14.158 59.0903 14.3829 59.8898 14.3829V13.5851C59.2493 13.5851 58.6889 13.408 58.1953 13.0562L57.7323 13.7058ZM59.8898 14.3829C60.3342 14.3829 60.7669 14.3131 61.1859 14.1734L60.9336 13.4166C60.5967 13.5289 60.2493 13.5851 59.8898 13.5851V14.3829ZM61.1859 14.1734C61.6146 14.0305 61.9813 13.8138 62.2723 13.5155L61.7013 12.9585C61.5123 13.1522 61.2609 13.3075 60.9336 13.4166L61.1859 14.1734ZM62.2688 13.519C62.5925 13.1954 62.7546 12.7897 62.7546 12.328H61.9569C61.9569 12.5863 61.8731 12.7866 61.7047 12.955L62.2688 13.519ZM62.7546 12.328C62.7546 12.1529 62.7266 11.9822 62.6692 11.8182L61.9163 12.0818C61.9429 12.1578 61.9569 12.2391 61.9569 12.328H62.7546ZM62.6763 11.8404C62.6239 11.6572 62.5331 11.4912 62.4102 11.3437L61.7974 11.8543C61.8544 11.9228 61.8896 11.9908 61.9093 12.0596L62.6763 11.8404ZM62.4102 11.3437C62.2806 11.1882 62.1095 11.058 61.9147 10.9467L61.5189 11.6393C61.66 11.72 61.7469 11.7938 61.7974 11.8543L62.4102 11.3437ZM61.9201 10.9499C61.7229 10.833 61.4846 10.7348 61.2137 10.651L60.9778 11.413C61.2109 11.4852 61.3866 11.561 61.5134 11.6361L61.9201 10.9499ZM61.2083 10.6493L57.8423 9.65935L57.6172 10.4247L60.9832 11.4147L61.2083 10.6493ZM57.8393 9.65849C57.6032 9.59102 57.3218 9.49369 56.9936 9.36476L56.7019 10.1072C57.0457 10.2423 57.3523 10.349 57.6202 10.4255L57.8393 9.65849ZM56.9959 9.36567C56.7053 9.24943 56.4172 9.08086 56.1317 8.85579L55.6378 9.48221C55.9764 9.74914 56.3302 9.95857 56.6996 10.1063L56.9959 9.36567ZM56.1317 8.85579C55.8698 8.64924 55.6429 8.37148 55.4553 8.01232L54.7482 8.38168C54.9806 8.82652 55.2758 9.19676 55.6378 9.48221L56.1317 8.85579ZM55.4585 8.01862C55.2902 7.68207 55.1946 7.23496 55.1946 6.658H54.3969C54.3969 7.31703 54.5053 7.89593 54.745 8.37537L55.4585 8.01862ZM55.1946 6.658C55.1946 5.85704 55.3951 5.22382 55.7703 4.73043L55.1353 4.24757C54.6345 4.90618 54.3969 5.71896 54.3969 6.658H55.1946ZM55.7703 4.73043C56.1597 4.21825 56.6822 3.83192 57.3512 3.5742L57.0644 2.8298C56.2694 3.13608 55.6218 3.60774 55.1353 4.24757L55.7703 4.73043ZM57.3512 3.5742C58.0308 3.31236 58.7905 3.18114 59.6351 3.18685L59.6405 2.38915C58.7091 2.38285 57.8487 2.52764 57.0644 2.8298L57.3512 3.5742ZM59.6324 3.18682C60.4841 3.19826 61.2303 3.34377 61.8777 3.6149L62.1858 2.8791C61.4292 2.56223 60.5794 2.40174 59.6431 2.38918L59.6324 3.18682ZM61.8777 3.6149C62.5231 3.88521 63.0586 4.27686 63.4904 4.79062L64.1011 4.27738C63.5849 3.66314 62.9444 3.19679 62.1858 2.8791L61.8777 3.6149ZM63.4918 4.79223C63.9216 5.29824 64.2386 5.92599 64.4357 6.6861L65.2079 6.4859C64.9849 5.62601 64.6179 4.88576 64.0998 4.27577L63.4918 4.79223ZM64.7549 6.19279L62.1089 6.64279L62.2426 7.42921L64.8886 6.97921L64.7549 6.19279ZM62.5646 6.94712C62.4553 6.46889 62.2499 6.05177 61.9419 5.70786L61.3477 6.24014C61.5556 6.47222 61.7042 6.76311 61.7869 7.12488L62.5646 6.94712ZM61.9419 5.70786C61.6438 5.37517 61.2856 5.12149 60.8712 4.94882L60.5644 5.68518C60.8699 5.81251 61.1297 5.99683 61.3477 6.24014L61.9419 5.70786ZM60.8734 4.94975C60.4733 4.78021 60.0526 4.68882 59.614 4.67533L59.5895 5.47267C59.9309 5.48318 60.2543 5.55379 60.5622 5.68425L60.8734 4.94975ZM59.6142 4.67533C59.1841 4.66189 58.7718 4.7224 58.3807 4.85963L58.6448 5.61236C58.9377 5.5096 59.2515 5.46211 59.5893 5.47266L59.6142 4.67533ZM58.3846 4.85829C57.9976 4.98958 57.6649 5.18849 57.3989 5.46185L57.9706 6.01815C58.1367 5.84751 58.3559 5.71042 58.6409 5.61371L58.3846 4.85829ZM57.395 5.4659C57.1148 5.76208 56.9709 6.1242 56.9709 6.532H57.7686C57.7686 6.3278 57.8347 6.16192 57.9745 6.0141L57.395 5.4659ZM56.9709 6.532C56.9709 6.90325 57.0888 7.23823 57.344 7.50222L57.9175 6.94778C57.8247 6.85177 57.7686 6.72475 57.7686 6.532H56.9709ZM57.3487 7.50704C57.5657 7.72397 57.8314 7.89227 58.1367 8.01716L58.4388 7.27884C58.2161 7.18773 58.0439 7.07403 57.9128 6.94296L57.3487 7.50704ZM58.1367 8.01716C58.4171 8.13187 58.704 8.22747 58.9971 8.30394L59.1984 7.53206C58.9396 7.46453 58.6864 7.38013 58.4388 7.27884L58.1367 8.01716ZM58.9931 8.30288L61.2431 8.91488L61.4525 8.14512L59.2025 7.53312L58.9931 8.30288ZM61.2446 8.91528C61.5665 9.00151 61.9268 9.11754 62.3261 9.26436L62.6014 8.51564C62.1847 8.36246 61.801 8.23849 61.451 8.14472L61.2446 8.91528ZM62.331 9.26612C62.7023 9.39715 63.0595 9.58353 63.4029 9.82727L63.8646 9.17673C63.4641 8.89247 63.0413 8.67085 62.5965 8.51388L62.331 9.26612ZM63.4089 9.83144C63.7329 10.0526 64.0012 10.3474 64.2133 10.7238L64.9083 10.3322C64.6403 9.85657 64.2907 9.46744 63.8586 9.17256L63.4089 9.83144ZM64.2154 10.7275C64.4167 11.076 64.5309 11.5417 64.5309 12.148H65.3286C65.3286 11.4463 65.1969 10.832 64.9062 10.3285L64.2154 10.7275ZM64.5309 12.148C64.5309 12.7866 64.3965 13.3261 64.1412 13.7793L64.8363 14.1707C65.169 13.5799 65.3286 12.9014 65.3286 12.148H64.5309ZM64.1405 13.7806C63.8825 14.2429 63.534 14.6266 63.0911 14.9345L63.5464 15.5895C64.0875 15.2134 64.5191 14.7391 64.837 14.1694L64.1405 13.7806ZM63.0938 14.9326C62.6418 15.2413 62.1255 15.4755 61.5411 15.6329L61.7485 16.4031C62.4121 16.2245 63.0117 15.9547 63.5437 15.5914L63.0938 14.9326ZM61.5401 15.6331C60.9573 15.7916 60.3535 15.8711 59.7278 15.8711V16.6689C60.422 16.6689 61.0963 16.5804 61.7494 16.4029L61.5401 15.6331ZM68.7953 15.424L68.5894 15.7656L68.5904 15.7662L68.7953 15.424ZM66.6263 13.057L66.2691 13.2345L66.27 13.2362L66.6263 13.057ZM66.6263 5.983L66.27 5.80378L66.2691 5.80547L66.6263 5.983ZM68.7953 3.616L68.5904 3.27379L68.5894 3.27437L68.7953 3.616ZM75.5003 3.616L75.2944 3.95763L75.2954 3.95821L75.5003 3.616ZM77.6693 5.983L77.3121 6.16053L77.313 6.16222L77.6693 5.983ZM77.6693 13.057L77.313 12.8778L77.3121 12.8795L77.6693 13.057ZM75.5003 15.424L75.2954 15.0818L75.2944 15.0824L75.5003 15.424ZM72.1523 13.966L72.1465 14.3648L72.1523 13.966ZM74.2043 13.435L74.4264 13.7663L74.2043 13.435ZM75.4283 11.878L75.0593 11.7265L75.0582 11.7293L75.4283 11.878ZM75.4283 7.18L75.0591 7.33103L75.0603 7.33388L75.4283 7.18ZM74.2043 5.641L74.4264 5.30969V5.30969L74.2043 5.641ZM72.1523 5.074L72.1581 4.67518L72.1523 5.074ZM68.8673 7.162L68.4983 7.01046L68.4972 7.0133L68.8673 7.162ZM68.8673 11.86L68.4981 12.011L68.4993 12.0139L68.8673 11.86ZM70.1003 13.399L69.8782 13.7303L70.1003 13.399ZM72.1523 15.8711C70.9153 15.8711 69.8699 15.6025 69.0002 15.0818L68.5904 15.7662C69.6047 16.3735 70.7973 16.6689 72.1523 16.6689V15.8711ZM69.0012 15.0824C68.1322 14.5588 67.4602 13.8273 66.9826 12.8778L66.27 13.2362C66.8124 14.3147 67.5864 15.1612 68.5894 15.7656L69.0012 15.0824ZM66.9835 12.8795C66.5116 11.93 66.2692 10.8138 66.2692 9.52H65.4714C65.4714 10.9142 65.733 12.156 66.2691 13.2345L66.9835 12.8795ZM66.2692 9.52C66.2692 8.22617 66.5116 7.10997 66.9835 6.16053L66.2691 5.80547C65.733 6.88403 65.4714 8.12583 65.4714 9.52H66.2692ZM66.9826 6.16222C67.4602 5.21274 68.1322 4.48123 69.0012 3.95763L68.5894 3.27437C67.5864 3.87877 66.8124 4.72526 66.27 5.80378L66.9826 6.16222ZM69.0002 3.95821C69.8699 3.4375 70.9153 3.16886 72.1523 3.16886V2.37114C70.7973 2.37114 69.6047 2.6665 68.5904 3.27379L69.0002 3.95821ZM72.1523 3.16886C73.3894 3.16886 74.4313 3.43752 75.2944 3.95763L75.7062 3.27437C74.6973 2.66648 73.5072 2.37114 72.1523 2.37114V3.16886ZM75.2954 3.95821C76.1698 4.48174 76.841 5.2126 77.3121 6.16053L78.0265 5.80547C77.4896 4.7254 76.7148 3.87826 75.7052 3.27379L75.2954 3.95821ZM77.313 6.16222C77.7903 7.11126 78.0354 8.22685 78.0354 9.52H78.8332C78.8332 8.12515 78.5683 6.88274 78.0256 5.80378L77.313 6.16222ZM78.0354 9.52C78.0354 10.8132 77.7903 11.9287 77.313 12.8778L78.0256 13.2362C78.5683 12.1573 78.8332 10.9148 78.8332 9.52H78.0354ZM77.3121 12.8795C76.841 13.8274 76.1698 14.5583 75.2954 15.0818L75.7052 15.7662C76.7148 15.1617 77.4896 14.3146 78.0265 13.2345L77.3121 12.8795ZM75.2944 15.0824C74.4313 15.6025 73.3894 15.8711 72.1523 15.8711V16.6689C73.5072 16.6689 74.6973 16.3735 75.7062 15.7656L75.2944 15.0824ZM72.1465 14.3648C73.0291 14.3777 73.7979 14.1876 74.4264 13.7663L73.9822 13.1037C73.5187 13.4144 72.9195 13.5783 72.1581 13.5672L72.1465 14.3648ZM74.4264 13.7663C75.0457 13.3512 75.5017 12.7652 75.7984 12.0267L75.0582 11.7293C74.8149 12.3348 74.4549 12.7868 73.9822 13.1037L74.4264 13.7663ZM75.7973 12.0295C76.0971 11.2995 76.2412 10.46 76.2412 9.52H75.4434C75.4434 10.38 75.3115 11.1125 75.0594 11.7265L75.7973 12.0295ZM76.2412 9.52C76.2412 8.58031 76.0972 7.74568 75.7963 7.02612L75.0603 7.33388C75.3114 7.93432 75.4434 8.65969 75.4434 9.52H76.2412ZM75.7975 7.02898C75.5001 6.30212 75.0439 5.7236 74.4264 5.30969L73.9822 5.97231C74.4568 6.2904 74.8165 6.73788 75.0591 7.33102L75.7975 7.02898ZM74.4264 5.30969C73.802 4.89114 73.0379 4.68803 72.1581 4.67518L72.1465 5.47282C72.9107 5.48397 73.5146 5.65886 73.9822 5.97231L74.4264 5.30969ZM72.1581 4.67518C71.2755 4.6623 70.5067 4.85237 69.8782 5.27369L70.3224 5.93631C70.7859 5.62563 71.3851 5.4617 72.1465 5.47282L72.1581 4.67518ZM69.8782 5.27369C69.2597 5.68831 68.8011 6.27331 68.4984 7.01047L69.2363 7.31353C69.4855 6.70669 69.8489 6.25368 70.3224 5.93631L69.8782 5.27369ZM68.4972 7.0133C68.2042 7.74252 68.0634 8.581 68.0634 9.52H68.8612C68.8612 8.659 68.9904 7.92548 69.2374 7.3107L68.4972 7.0133ZM68.0634 9.52C68.0634 10.4587 68.2041 11.2923 68.4981 12.011L69.2365 11.709C68.9905 11.1077 68.8612 10.3813 68.8612 9.52H68.0634ZM68.4993 12.0139C68.8027 12.7394 69.2615 13.3169 69.8782 13.7303L70.3224 13.0677C69.8471 12.7491 69.4839 12.3006 69.2353 11.7061L68.4993 12.0139ZM69.8782 13.7303C70.5026 14.1489 71.2667 14.352 72.1465 14.3648L72.1581 13.5672C71.3939 13.556 70.79 13.3811 70.3224 13.0677L69.8782 13.7303ZM82.4333 15.64L82.2444 15.9913L82.2464 15.9924L82.4333 15.64ZM80.5793 13.849L80.9246 13.6494L80.5793 13.849ZM79.9133 3.058L79.9104 2.65915L79.5144 2.66202V3.058H79.9133ZM82.3973 3.04H82.7962V2.63824L82.3944 2.64115L82.3973 3.04ZM82.6133 12.283L82.9818 12.1305L82.6133 12.283ZM83.2073 13.183L82.9252 13.4651L82.9286 13.4683L83.2073 13.183ZM84.0983 13.768L83.9467 14.137L83.9547 14.1401L84.0983 13.768ZM86.2853 13.759L86.136 13.3891L86.1338 13.39L86.2853 13.759ZM87.7613 12.274L87.3927 12.1215L87.3905 12.127L87.7613 12.274ZM87.9773 3.04V2.64114H87.5784V3.04H87.9773ZM90.4613 3.04H90.8602V2.64114H90.4613V3.04ZM89.7953 13.849L90.1406 14.0486L89.7953 13.849ZM87.9413 15.64L88.1282 15.9924L88.1302 15.9913L87.9413 15.64ZM85.1873 15.8711C84.1977 15.8711 83.3458 15.6724 82.6202 15.2876L82.2464 15.9924C83.1048 16.4476 84.0889 16.6689 85.1873 16.6689V15.8711ZM82.6222 15.2887C81.8945 14.8973 81.331 14.3524 80.9246 13.6494L80.234 14.0486C80.7156 14.8816 81.3881 15.5307 82.2444 15.9913L82.6222 15.2887ZM80.9246 13.6494C80.5213 12.9517 80.3122 12.1199 80.3122 11.14H79.5144C79.5144 12.2361 79.7493 13.2103 80.234 14.0486L80.9246 13.6494ZM80.3122 11.14V3.058H79.5144V11.14H80.3122ZM79.9162 3.45685L82.4002 3.43885L82.3944 2.64115L79.9104 2.65915L79.9162 3.45685ZM81.9984 3.04V11.122H82.7962V3.04H81.9984ZM81.9984 11.122C81.9984 11.5935 82.0783 12.0332 82.2447 12.4355L82.9818 12.1305C82.8603 11.8368 82.7962 11.5025 82.7962 11.122H81.9984ZM82.2447 12.4355C82.4076 12.8292 82.6341 13.1739 82.9253 13.465L83.4893 12.901C83.2765 12.6881 83.107 12.4328 82.9818 12.1305L82.2447 12.4355ZM82.9286 13.4683C83.2235 13.7564 83.5637 13.9796 83.9468 14.137L84.2498 13.399C83.9608 13.2804 83.7071 13.1136 83.486 12.8977L82.9286 13.4683ZM83.9547 14.1401C84.3447 14.2906 84.7565 14.3649 85.1873 14.3649V13.5671C84.85 13.5671 84.5359 13.5094 84.2419 13.3959L83.9547 14.1401ZM85.1873 14.3649C85.6306 14.3649 86.0486 14.2874 86.4368 14.128L86.1338 13.39C85.85 13.5066 85.536 13.5671 85.1873 13.5671V14.3649ZM86.4345 14.1289C86.8245 13.9715 87.1671 13.7473 87.4583 13.456L86.8943 12.892C86.6815 13.1047 86.4301 13.2705 86.136 13.3891L86.4345 14.1289ZM87.4583 13.456C87.7507 13.1636 87.975 12.817 88.1321 12.421L87.3905 12.127C87.2716 12.427 87.1059 12.6804 86.8943 12.892L87.4583 13.456ZM88.1299 12.4265C88.296 12.0249 88.3762 11.5883 88.3762 11.122H87.5784C87.5784 11.4957 87.5146 11.8271 87.3927 12.1215L88.1299 12.4265ZM88.3762 11.122V3.04H87.5784V11.122H88.3762ZM87.9773 3.43886H90.4613V2.64114H87.9773V3.43886ZM90.0624 3.04V11.14H90.8602V3.04H90.0624ZM90.0624 11.14C90.0624 12.1199 89.8533 12.9517 89.45 13.6494L90.1406 14.0486C90.6253 13.2103 90.8602 12.2361 90.8602 11.14H90.0624ZM89.45 13.6494C89.0436 14.3524 88.4801 14.8973 87.7524 15.2887L88.1302 15.9913C88.9865 15.5307 89.659 14.8816 90.1406 14.0486L89.45 13.6494ZM87.7544 15.2876C87.0288 15.6724 86.1769 15.8711 85.1873 15.8711V16.6689C86.2857 16.6689 87.2698 16.4476 88.1282 15.9924L87.7544 15.2876ZM92.6562 16H92.2574V16.3989H92.6562V16ZM92.6562 3.04V2.64114H92.2574V3.04H92.6562ZM95.1402 3.04L95.4743 2.82214L95.3563 2.64114H95.1402V3.04ZM100.774 11.68L100.44 11.8979L101.173 13.0219V11.68H100.774ZM100.774 3.04V2.64114H100.375V3.04H100.774ZM103.258 3.04H103.657V2.64114H103.258V3.04ZM103.258 16V16.3989H103.657V16H103.258ZM100.774 16L100.44 16.2179L100.558 16.3989H100.774V16ZM95.1402 7.36L95.4743 7.14214L94.7413 6.0181V7.36H95.1402ZM95.1402 16V16.3989H95.5391V16H95.1402ZM93.0551 16V3.04H92.2574V16H93.0551ZM92.6562 3.43886H95.1402V2.64114H92.6562V3.43886ZM94.8061 3.25786L100.44 11.8979L101.108 11.4621L95.4743 2.82214L94.8061 3.25786ZM101.173 11.68V3.04H100.375V11.68H101.173ZM100.774 3.43886H103.258V2.64114H100.774V3.43886ZM102.859 3.04V16H103.657V3.04H102.859ZM103.258 15.6011H100.774V16.3989H103.258V15.6011ZM101.108 15.7821L95.4743 7.14214L94.8061 7.57786L100.44 16.2179L101.108 15.7821ZM94.7413 7.36V16H95.5391V7.36H94.7413ZM95.1402 15.6011H92.6562V16.3989H95.1402V15.6011ZM105.452 16H105.053V16.3989H105.452V16ZM105.452 3.04V2.64114H105.053V3.04H105.452ZM110.276 3.049L110.268 3.44779L110.276 3.049ZM111.194 3.112L111.145 3.5079L111.146 3.50799L111.194 3.112ZM113.849 4.201L114.103 3.89355V3.89355L113.849 4.201ZM115.505 6.487L115.874 6.33598L115.505 6.487ZM115.505 12.553L115.874 12.704L115.505 12.553ZM113.849 14.839L114.103 15.1465L113.849 14.839ZM111.194 15.928L111.146 15.532L111.145 15.5321L111.194 15.928ZM110.276 15.991L110.283 16.3898L110.276 15.991ZM107.936 13.696H107.537V14.0949H107.936V13.696ZM110.303 13.687L110.312 14.0859L110.32 14.0855L110.303 13.687ZM111.05 13.606L111.124 13.9979L111.129 13.997L111.05 13.606ZM112.427 12.814L112.126 12.5523L112.124 12.5548L112.427 12.814ZM113.219 11.32L112.837 11.2057L112.836 11.2094L113.219 11.32ZM113.21 7.675L112.828 7.78925L112.829 7.79285L113.21 7.675ZM112.409 6.199L112.706 5.93291L112.409 6.199ZM111.05 5.434L110.966 5.82391L110.972 5.82528L111.05 5.434ZM110.303 5.353L110.312 4.95423H110.312L110.303 5.353ZM107.936 5.344V4.94514H107.537V5.344H107.936ZM105.851 16V3.04H105.053V16H105.851ZM105.452 3.43886H109.646V2.64114H105.452V3.43886ZM109.646 3.43886C109.743 3.43886 109.95 3.44177 110.268 3.44779L110.283 2.65021C109.966 2.64422 109.752 2.64114 109.646 2.64114V3.43886ZM110.268 3.44779C110.574 3.45355 110.866 3.47368 111.145 3.5079L111.242 2.7161C110.934 2.67832 110.614 2.65645 110.283 2.65021L110.268 3.44779ZM111.146 3.50799C112.123 3.62594 112.934 3.96265 113.595 4.50845L114.103 3.89355C113.311 3.23935 112.352 2.85006 111.242 2.71601L111.146 3.50799ZM113.595 4.50845C114.267 5.06407 114.781 5.77109 115.136 6.63802L115.874 6.33598C115.473 5.35491 114.883 4.53793 114.103 3.89355L113.595 4.50845ZM115.136 6.63802C115.492 7.50951 115.673 8.4686 115.673 9.52H116.471C116.471 8.3754 116.274 7.31249 115.874 6.33598L115.136 6.63802ZM115.673 9.52C115.673 10.5714 115.492 11.5305 115.136 12.402L115.874 12.704C116.274 11.7275 116.471 10.6646 116.471 9.52H115.673ZM115.136 12.402C114.781 13.2689 114.267 13.9759 113.595 14.5315L114.103 15.1465C114.883 14.5021 115.473 13.6851 115.874 12.704L115.136 12.402ZM113.595 14.5315C112.934 15.0774 112.123 15.4141 111.146 15.532L111.242 16.324C112.352 16.1899 113.311 15.8006 114.103 15.1465L113.595 14.5315ZM111.145 15.5321C110.866 15.5663 110.574 15.5865 110.268 15.5922L110.283 16.3898C110.614 16.3835 110.934 16.3617 111.242 16.3239L111.145 15.5321ZM110.268 15.5922C109.95 15.5982 109.743 15.6011 109.646 15.6011V16.3989C109.752 16.3989 109.966 16.3958 110.283 16.3898L110.268 15.5922ZM109.646 15.6011H105.452V16.3989H109.646V15.6011ZM107.936 14.0949H109.646V13.2971H107.936V14.0949ZM109.646 14.0949C109.812 14.0949 110.034 14.0918 110.312 14.0858L110.294 13.2882C110.019 13.2942 109.804 13.2971 109.646 13.2971V14.0949ZM110.32 14.0855C110.611 14.0728 110.88 14.0441 111.124 13.9979L110.976 13.2141C110.776 13.2519 110.546 13.2772 110.286 13.2885L110.32 14.0855ZM111.129 13.997C111.775 13.8664 112.315 13.5589 112.73 13.0732L112.124 12.5548C111.831 12.8971 111.453 13.1176 110.971 13.215L111.129 13.997ZM112.728 13.0757C113.13 12.6136 113.42 12.0625 113.602 11.4306L112.836 11.2094C112.682 11.7415 112.444 12.1864 112.126 12.5523L112.728 13.0757ZM113.601 11.4342C113.786 10.8145 113.879 10.176 113.879 9.52H113.081C113.081 10.1 112.999 10.6615 112.837 11.2057L113.601 11.4342ZM113.879 9.52C113.879 8.83459 113.783 8.17968 113.591 7.55715L112.829 7.79285C112.996 8.33432 113.081 8.90941 113.081 9.52H113.879ZM113.592 7.56075C113.403 6.9296 113.11 6.38386 112.706 5.93291L112.112 6.46509C112.428 6.81814 112.668 7.2564 112.828 7.78925L113.592 7.56075ZM112.706 5.93291C112.286 5.46431 111.755 5.16694 111.127 5.04272L110.972 5.82528C111.436 5.91705 111.811 6.12969 112.112 6.46509L112.706 5.93291ZM111.134 5.04415C110.883 4.98977 110.608 4.96067 110.312 4.95423L110.294 5.75177C110.55 5.75733 110.773 5.78223 110.966 5.82385L111.134 5.04415ZM110.312 4.95423C110.034 4.94821 109.812 4.94514 109.646 4.94514V5.74286C109.804 5.74286 110.019 5.74579 110.294 5.75177L110.312 4.95423ZM109.646 4.94514H107.936V5.74286H109.646V4.94514ZM107.537 5.344V13.696H108.335V5.344H107.537ZM118.634 18.43L118.239 18.3746L118.184 18.7623L118.571 18.8239L118.634 18.43ZM118.778 17.404L118.811 17.0065L118.435 16.9752L118.383 17.3486L118.778 17.404ZM119.48 17.26L119.266 16.9229L119.258 16.9281L119.48 17.26ZM119.849 16.756L119.47 16.6298L119.466 16.6423L119.849 16.756ZM119.894 16L120.288 15.9424L120.238 15.6011H119.894V16ZM118.634 16H118.235V16.3989H118.634V16ZM118.634 13.552V13.1531H118.235V13.552H118.634ZM121.082 13.552H121.48V13.1531H121.082V13.552ZM120.479 17.962L120.183 17.6943V17.6943L120.479 17.962ZM118.634 8.728H118.235V9.12686H118.634V8.728ZM118.634 6.28V5.88114H118.235V6.28H118.634ZM121.082 6.28H121.48V5.88114H121.082V6.28ZM121.082 8.728V9.12686H121.48V8.728H121.082ZM119.029 18.4854L119.173 17.4594L118.383 17.3486L118.239 18.3746L119.029 18.4854ZM118.744 17.8015C119.092 17.8305 119.424 17.7764 119.701 17.5919L119.258 16.9281C119.175 16.9836 119.039 17.0255 118.811 17.0065L118.744 17.8015ZM119.693 17.597C119.962 17.4267 120.14 17.1754 120.231 16.8697L119.466 16.6423C119.425 16.7806 119.357 16.8653 119.266 16.923L119.693 17.597ZM120.227 16.8821C120.323 16.5929 120.337 16.2755 120.288 15.9424L119.499 16.0576C119.534 16.3005 119.518 16.4871 119.47 16.6299L120.227 16.8821ZM119.894 15.6011H118.634V16.3989H119.894V15.6011ZM119.032 16V13.552H118.235V16H119.032ZM118.634 13.9509H121.082V13.1531H118.634V13.9509ZM120.683 13.552V16H121.48V13.552H120.683ZM120.683 16C120.683 16.8084 120.494 17.3504 120.183 17.6943L120.774 18.2297C121.267 17.6856 121.48 16.9196 121.48 16H120.683ZM120.183 17.6943C119.905 18.0014 119.449 18.1562 118.696 18.0361L118.571 18.8239C119.474 18.9678 120.248 18.8106 120.774 18.2297L120.183 17.6943ZM119.032 8.728V6.28H118.235V8.728H119.032ZM118.634 6.67886H121.082V5.88114H118.634V6.67886ZM120.683 6.28V8.728H121.48V6.28H120.683ZM121.082 8.32914H118.634V9.12686H121.082V8.32914Z" fill="#FFA7A7"/>
<circle cx="49.5" cy="14.5" r="2.5" fill="#61A3F3"/>
<path d="M6.156 16.27C5.196 16.27 4.329 16.102 3.555 15.766C2.787 15.424 2.154 14.938 1.656 14.308C1.164 13.672 0.852 12.916 0.72 12.04L3.276 11.662C3.456 12.406 3.828 12.979 4.392 13.381C4.956 13.783 5.598 13.984 6.318 13.984C6.72 13.984 7.11 13.921 7.488 13.795C7.866 13.669 8.175 13.483 8.415 13.237C8.661 12.991 8.784 12.688 8.784 12.328C8.784 12.196 8.763 12.07 8.721 11.95C8.685 11.824 8.622 11.707 8.532 11.599C8.442 11.491 8.313 11.389 8.145 11.293C7.983 11.197 7.776 11.11 7.524 11.032L4.158 10.042C3.906 9.97 3.612 9.868 3.276 9.736C2.946 9.604 2.625 9.415 2.313 9.169C2.001 8.923 1.74 8.599 1.53 8.197C1.326 7.789 1.224 7.276 1.224 6.658C1.224 5.788 1.443 5.065 1.881 4.489C2.319 3.913 2.904 3.484 3.636 3.202C4.368 2.92 5.178 2.782 6.066 2.788C6.96 2.8 7.758 2.953 8.46 3.247C9.162 3.541 9.75 3.97 10.224 4.534C10.698 5.092 11.04 5.776 11.25 6.586L8.604 7.036C8.508 6.616 8.331 6.262 8.073 5.974C7.815 5.686 7.506 5.467 7.146 5.317C6.792 5.167 6.42 5.086 6.03 5.074C5.646 5.062 5.283 5.116 4.941 5.236C4.605 5.35 4.329 5.518 4.113 5.74C3.903 5.962 3.798 6.226 3.798 6.532C3.798 6.814 3.885 7.045 4.059 7.225C4.233 7.399 4.452 7.54 4.716 7.648C4.98 7.756 5.25 7.846 5.526 7.918L7.776 8.53C8.112 8.62 8.484 8.74 8.892 8.89C9.3 9.034 9.69 9.238 10.062 9.502C10.44 9.76 10.749 10.102 10.989 10.528C11.235 10.954 11.358 11.494 11.358 12.148C11.358 12.844 11.211 13.453 10.917 13.975C10.629 14.491 10.239 14.92 9.747 15.262C9.255 15.598 8.697 15.85 8.073 16.018C7.455 16.186 6.816 16.27 6.156 16.27ZM18.1782 16.27C17.2182 16.27 16.3512 16.102 15.5772 15.766C14.8092 15.424 14.1762 14.938 13.6782 14.308C13.1862 13.672 12.8742 12.916 12.7422 12.04L15.2982 11.662C15.4782 12.406 15.8502 12.979 16.4142 13.381C16.9782 13.783 17.6202 13.984 18.3402 13.984C18.7422 13.984 19.1322 13.921 19.5102 13.795C19.8882 13.669 20.1972 13.483 20.4372 13.237C20.6832 12.991 20.8062 12.688 20.8062 12.328C20.8062 12.196 20.7852 12.07 20.7432 11.95C20.7072 11.824 20.6442 11.707 20.5542 11.599C20.4642 11.491 20.3352 11.389 20.1672 11.293C20.0052 11.197 19.7982 11.11 19.5462 11.032L16.1802 10.042C15.9282 9.97 15.6342 9.868 15.2982 9.736C14.9682 9.604 14.6472 9.415 14.3352 9.169C14.0232 8.923 13.7622 8.599 13.5522 8.197C13.3482 7.789 13.2462 7.276 13.2462 6.658C13.2462 5.788 13.4652 5.065 13.9032 4.489C14.3412 3.913 14.9262 3.484 15.6582 3.202C16.3902 2.92 17.2002 2.782 18.0882 2.788C18.9822 2.8 19.7802 2.953 20.4822 3.247C21.1842 3.541 21.7722 3.97 22.2462 4.534C22.7202 5.092 23.0622 5.776 23.2722 6.586L20.6262 7.036C20.5302 6.616 20.3532 6.262 20.0952 5.974C19.8372 5.686 19.5282 5.467 19.1682 5.317C18.8142 5.167 18.4422 5.086 18.0522 5.074C17.6682 5.062 17.3052 5.116 16.9632 5.236C16.6272 5.35 16.3512 5.518 16.1352 5.74C15.9252 5.962 15.8202 6.226 15.8202 6.532C15.8202 6.814 15.9072 7.045 16.0812 7.225C16.2552 7.399 16.4742 7.54 16.7382 7.648C17.0022 7.756 17.2722 7.846 17.5482 7.918L19.7982 8.53C20.1342 8.62 20.5062 8.74 20.9142 8.89C21.3222 9.034 21.7122 9.238 22.0842 9.502C22.4622 9.76 22.7712 10.102 23.0112 10.528C23.2572 10.954 23.3802 11.494 23.3802 12.148C23.3802 12.844 23.2332 13.453 22.9392 13.975C22.6512 14.491 22.2612 14.92 21.7692 15.262C21.2772 15.598 20.7192 15.85 20.0952 16.018C19.4772 16.186 18.8382 16.27 18.1782 16.27ZM24.1407 16L28.1007 3.04H31.7547L35.7147 16H33.1947L29.6667 4.57H30.1347L26.6607 16H24.1407ZM26.5167 13.3V11.014H33.3567V13.3H26.5167ZM37.0102 16V3.04H44.9302V5.488H39.4582V8.296H43.8502V10.744H39.4582V16H37.0102Z" fill="#61A3F3"/>
<path d="M3.555 15.766L3.39274 16.1304L3.39617 16.1319L3.555 15.766ZM1.656 14.308L1.3405 14.5521L1.34309 14.5553L1.656 14.308ZM0.72 12.04L0.661648 11.6454L0.265998 11.7039L0.325592 12.0994L0.72 12.04ZM3.276 11.662L3.66368 11.5682L3.57801 11.2141L3.21765 11.2674L3.276 11.662ZM4.392 13.381L4.62351 13.0562L4.392 13.381ZM7.488 13.795L7.36187 13.4166L7.488 13.795ZM8.415 13.237L8.13294 12.9549L8.1295 12.9585L8.415 13.237ZM8.721 11.95L8.33749 12.0596L8.34069 12.0708L8.34453 12.0818L8.721 11.95ZM8.532 11.599L8.83841 11.3437L8.532 11.599ZM8.145 11.293L7.94163 11.6362L7.94711 11.6393L8.145 11.293ZM7.524 11.032L7.64195 10.6509L7.63654 10.6493L7.524 11.032ZM4.158 10.042L4.27055 9.65933L4.26758 9.65848L4.158 10.042ZM3.276 9.736L3.12786 10.1063L3.13016 10.1072L3.276 9.736ZM2.313 9.169L2.55996 8.85579L2.55996 8.85579L2.313 9.169ZM1.53 8.197L1.17319 8.3754L1.17647 8.38168L1.53 8.197ZM1.881 4.489L2.19849 4.73043V4.73043L1.881 4.489ZM3.636 3.202L3.77939 3.5742L3.77939 3.57419L3.636 3.202ZM6.066 2.788L6.07135 2.38917L6.06869 2.38915L6.066 2.788ZM8.46 3.247L8.61408 2.8791L8.46 3.247ZM10.224 4.534L9.91865 4.79062L9.92001 4.79223L10.224 4.534ZM11.25 6.586L11.3169 6.97921L11.7451 6.90638L11.6361 6.4859L11.25 6.586ZM8.604 7.036L8.21517 7.12487L8.29918 7.49243L8.67087 7.42921L8.604 7.036ZM8.073 5.974L7.77591 6.24014L8.073 5.974ZM7.146 5.317L6.99038 5.68426L6.99259 5.68518L7.146 5.317ZM6.03 5.074L6.01754 5.47266L6.01773 5.47267L6.03 5.074ZM4.941 5.236L5.06916 5.61373L5.07306 5.61236L4.941 5.236ZM4.113 5.74L3.8271 5.46182L3.82324 5.4659L4.113 5.74ZM4.059 7.225L3.77218 7.50226L3.77696 7.50704L4.059 7.225ZM4.716 7.648L4.86702 7.27884L4.716 7.648ZM5.526 7.918L5.63069 7.5331L5.62668 7.53205L5.526 7.918ZM7.776 8.53L7.67131 8.91488L7.6728 8.91528L7.776 8.53ZM8.892 8.89L8.75435 9.26439L8.75925 9.26612L8.892 8.89ZM10.062 9.502L9.83112 9.82733L9.83715 9.83144L10.062 9.502ZM10.989 10.528L10.6415 10.7238L10.6436 10.7275L10.989 10.528ZM10.917 13.975L10.5695 13.7793L10.5687 13.7806L10.917 13.975ZM9.747 15.262L9.97195 15.5914L9.97466 15.5895L9.747 15.262ZM8.073 16.018L7.96931 15.6329L7.96837 15.6331L8.073 16.018ZM6.156 15.8711C5.24314 15.8711 4.43125 15.7116 3.71383 15.4001L3.39617 16.1319C4.22675 16.4924 5.14886 16.6689 6.156 16.6689V15.8711ZM3.71726 15.4016C3.00534 15.0846 2.425 14.6376 1.96891 14.0607L1.34309 14.5553C1.883 15.2384 2.56866 15.7634 3.39274 16.1304L3.71726 15.4016ZM1.97148 14.0639C1.52523 13.4871 1.23733 12.7963 1.11441 11.9806L0.325592 12.0994C0.466673 13.0357 0.802768 13.8569 1.34052 14.5521L1.97148 14.0639ZM0.778352 12.4346L3.33435 12.0566L3.21765 11.2674L0.661648 11.6454L0.778352 12.4346ZM2.88832 11.7558C3.08834 12.5825 3.50994 13.2421 4.16049 13.7058L4.62351 13.0562C4.14606 12.7159 3.82366 12.2295 3.66368 11.5682L2.88832 11.7558ZM4.16049 13.7058C4.79487 14.158 5.5185 14.3829 6.318 14.3829V13.5851C5.6775 13.5851 5.11713 13.408 4.62351 13.0562L4.16049 13.7058ZM6.318 14.3829C6.76248 14.3829 7.19509 14.3131 7.61413 14.1734L7.36187 13.4166C7.02491 13.5289 6.67752 13.5851 6.318 13.5851V14.3829ZM7.61413 14.1734C8.04282 14.0305 8.40951 13.8138 8.7005 13.5155L8.1295 12.9585C7.94049 13.1522 7.68918 13.3075 7.36187 13.4166L7.61413 14.1734ZM8.69704 13.519C9.0207 13.1954 9.18286 12.7897 9.18286 12.328H8.38514C8.38514 12.5863 8.3013 12.7866 8.13296 12.955L8.69704 13.519ZM9.18286 12.328C9.18286 12.1529 9.15485 11.9822 9.09747 11.8182L8.34453 12.0818C8.37115 12.1578 8.38514 12.2391 8.38514 12.328H9.18286ZM9.10451 11.8404C9.05216 11.6572 8.96136 11.4912 8.83841 11.3437L8.22559 11.8543C8.28264 11.9228 8.31784 11.9908 8.33749 12.0596L9.10451 11.8404ZM8.83841 11.3437C8.70886 11.1882 8.53774 11.058 8.34289 10.9467L7.94711 11.6393C8.08826 11.72 8.17514 11.7938 8.22559 11.8543L8.83841 11.3437ZM8.34834 10.9499C8.15114 10.833 7.91288 10.7348 7.64194 10.651L7.40606 11.413C7.63912 11.4852 7.81486 11.561 7.94166 11.6361L8.34834 10.9499ZM7.63654 10.6493L4.27054 9.65935L4.04545 10.4247L7.41145 11.4147L7.63654 10.6493ZM4.26758 9.65848C4.03145 9.59102 3.75004 9.49369 3.42184 9.36476L3.13016 10.1072C3.47396 10.2423 3.78055 10.349 4.04842 10.4255L4.26758 9.65848ZM3.42413 9.36567C3.13354 9.24943 2.84541 9.08086 2.55996 8.85579L2.06604 9.48221C2.40459 9.74914 2.75846 9.95857 3.12787 10.1063L3.42413 9.36567ZM2.55996 8.85579C2.29799 8.64924 2.07115 8.37148 1.88353 8.01232L1.17647 8.38168C1.40885 8.82652 1.70401 9.19676 2.06604 9.48221L2.55996 8.85579ZM1.88675 8.01862C1.71848 7.68207 1.62286 7.23496 1.62286 6.658H0.82514C0.82514 7.31703 0.933525 7.89593 1.17325 8.37537L1.88675 8.01862ZM1.62286 6.658C1.62286 5.85704 1.82331 5.22382 2.19849 4.73043L1.56351 4.24757C1.06269 4.90618 0.82514 5.71895 0.82514 6.658H1.62286ZM2.19849 4.73043C2.58796 4.21825 3.11041 3.83192 3.77939 3.5742L3.49261 2.8298C2.69759 3.13608 2.05004 3.60774 1.56351 4.24757L2.19849 4.73043ZM3.77939 3.57419C4.45905 3.31236 5.21869 3.18114 6.06331 3.18685L6.06869 2.38915C5.13731 2.38285 4.27695 2.52764 3.49261 2.8298L3.77939 3.57419ZM6.06065 3.18682C6.91233 3.19826 7.65853 3.34377 8.30592 3.6149L8.61408 2.8791C7.85747 2.56223 7.00767 2.40174 6.07135 2.38918L6.06065 3.18682ZM8.30592 3.6149C8.95137 3.88521 9.48688 4.27686 9.91865 4.79062L10.5293 4.27738C10.0131 3.66314 9.37263 3.19679 8.61408 2.8791L8.30592 3.6149ZM9.92001 4.79223C10.3499 5.29824 10.6668 5.92598 10.8639 6.6861L11.6361 6.4859C11.4132 5.62601 11.0461 4.88576 10.528 4.27577L9.92001 4.79223ZM11.1831 6.19279L8.53713 6.64279L8.67087 7.42921L11.3169 6.97921L11.1831 6.19279ZM8.99283 6.94712C8.88352 6.46889 8.67818 6.05177 8.37008 5.70786L7.77591 6.24014C7.98382 6.47222 8.13248 6.7631 8.21517 7.12487L8.99283 6.94712ZM8.37009 5.70786C8.07205 5.37517 7.71382 5.12149 7.29941 4.94882L6.99259 5.68518C7.29818 5.81251 7.55795 5.99683 7.77591 6.24014L8.37009 5.70786ZM7.30161 4.94975C6.9015 4.78021 6.48083 4.68882 6.04227 4.67533L6.01773 5.47267C6.35917 5.48318 6.6825 5.55379 6.99039 5.68425L7.30161 4.94975ZM6.04246 4.67533C5.6123 4.66189 5.20006 4.7224 4.80894 4.85963L5.07306 5.61236C5.36594 5.5096 5.6797 5.46211 6.01754 5.47266L6.04246 4.67533ZM4.81285 4.85829C4.42588 4.98958 4.0931 5.18849 3.82713 5.46185L4.39887 6.01815C4.5649 5.84751 4.78412 5.71042 5.06915 5.61371L4.81285 4.85829ZM3.82324 5.4659C3.54307 5.76208 3.39914 6.1242 3.39914 6.532H4.19686C4.19686 6.3278 4.26293 6.16192 4.40276 6.01409L3.82324 5.4659ZM3.39914 6.532C3.39914 6.90325 3.51703 7.23823 3.77222 7.50222L4.34578 6.94778C4.25297 6.85177 4.19686 6.72475 4.19686 6.532H3.39914ZM3.77696 7.50704C3.9939 7.72397 4.25967 7.89227 4.56498 8.01716L4.86702 7.27884C4.64433 7.18773 4.4721 7.07403 4.34104 6.94296L3.77696 7.50704ZM4.56498 8.01716C4.84537 8.13187 5.13219 8.22747 5.42532 8.30394L5.62668 7.53205C5.36781 7.46452 5.11463 7.38013 4.86702 7.27884L4.56498 8.01716ZM5.42131 8.30288L7.67131 8.91488L7.88069 8.14512L5.63069 7.53312L5.42131 8.30288ZM7.6728 8.91528C7.99472 9.00151 8.35502 9.11754 8.75437 9.26436L9.02963 8.51564C8.61298 8.36246 8.22928 8.23849 7.8792 8.14472L7.6728 8.91528ZM8.75925 9.26612C9.13051 9.39715 9.4877 9.58353 9.83116 9.82727L10.2928 9.17673C9.8923 8.89247 9.46949 8.67085 9.02475 8.51388L8.75925 9.26612ZM9.83715 9.83144C10.1611 10.0526 10.4295 10.3474 10.6415 10.7238L11.3365 10.3322C11.0685 9.85657 10.7189 9.46744 10.2869 9.17256L9.83715 9.83144ZM10.6436 10.7275C10.8449 11.076 10.9591 11.5417 10.9591 12.148H11.7569C11.7569 11.4463 11.6251 10.832 11.3344 10.3285L10.6436 10.7275ZM10.9591 12.148C10.9591 12.7866 10.8247 13.3261 10.5695 13.7793L11.2645 14.1707C11.5973 13.5799 11.7569 12.9014 11.7569 12.148H10.9591ZM10.5687 13.7806C10.3107 14.2429 9.96226 14.6266 9.51934 14.9345L9.97466 15.5895C10.5157 15.2134 10.9473 14.7391 11.2653 14.1694L10.5687 13.7806ZM9.52206 14.9326C9.07006 15.2413 8.55371 15.4755 7.96931 15.6329L8.17669 16.4031C8.84029 16.2245 9.43994 15.9547 9.97194 15.5914L9.52206 14.9326ZM7.96837 15.6331C7.38551 15.7916 6.78174 15.8711 6.156 15.8711V16.6689C6.85026 16.6689 7.52449 16.5804 8.17763 16.4029L7.96837 15.6331ZM15.5772 15.766L15.4149 16.1304L15.4184 16.1319L15.5772 15.766ZM13.6782 14.308L13.3627 14.5521L13.3653 14.5553L13.6782 14.308ZM12.7422 12.04L12.6839 11.6454L12.2882 11.7039L12.3478 12.0994L12.7422 12.04ZM15.2982 11.662L15.6859 11.5682L15.6002 11.2141L15.2399 11.2674L15.2982 11.662ZM16.4142 13.381L16.6457 13.0562L16.4142 13.381ZM19.5102 13.795L19.3841 13.4166L19.5102 13.795ZM20.4372 13.237L20.1552 12.9549L20.1517 12.9585L20.4372 13.237ZM20.7432 11.95L20.3597 12.0596L20.3629 12.0708L20.3667 12.0818L20.7432 11.95ZM20.5542 11.599L20.8606 11.3437L20.5542 11.599ZM20.1672 11.293L19.9638 11.6362L19.9693 11.6393L20.1672 11.293ZM19.5462 11.032L19.6642 10.6509L19.6588 10.6493L19.5462 11.032ZM16.1802 10.042L16.2928 9.65933L16.2898 9.65848L16.1802 10.042ZM15.2982 9.736L15.1501 10.1063L15.1524 10.1072L15.2982 9.736ZM14.3352 9.169L14.5822 8.85579V8.85579L14.3352 9.169ZM13.5522 8.197L13.1954 8.3754L13.1987 8.38168L13.5522 8.197ZM13.9032 4.489L14.2207 4.73043V4.73043L13.9032 4.489ZM15.6582 3.202L15.8016 3.5742L15.8016 3.57419L15.6582 3.202ZM18.0882 2.788L18.0936 2.38917L18.0909 2.38915L18.0882 2.788ZM20.4822 3.247L20.6363 2.8791L20.4822 3.247ZM22.2462 4.534L21.9409 4.79062L21.9422 4.79223L22.2462 4.534ZM23.2722 6.586L23.3391 6.97921L23.7673 6.90638L23.6583 6.4859L23.2722 6.586ZM20.6262 7.036L20.2374 7.12487L20.3214 7.49243L20.6931 7.42921L20.6262 7.036ZM20.0952 5.974L19.7981 6.24014L20.0952 5.974ZM19.1682 5.317L19.0126 5.68426L19.0148 5.68518L19.1682 5.317ZM18.0522 5.074L18.0398 5.47266L18.0399 5.47267L18.0522 5.074ZM16.9632 5.236L17.0914 5.61373L17.0953 5.61236L16.9632 5.236ZM16.1352 5.74L15.8493 5.46182L15.8455 5.4659L16.1352 5.74ZM16.0812 7.225L15.7944 7.50226L15.7992 7.50704L16.0812 7.225ZM16.7382 7.648L16.8892 7.27884L16.7382 7.648ZM17.5482 7.918L17.6529 7.5331L17.6489 7.53205L17.5482 7.918ZM19.7982 8.53L19.6935 8.91488L19.695 8.91528L19.7982 8.53ZM20.9142 8.89L20.7766 9.26439L20.7815 9.26612L20.9142 8.89ZM22.0842 9.502L21.8533 9.82733L21.8594 9.83144L22.0842 9.502ZM23.0112 10.528L22.6637 10.7238L22.6658 10.7275L23.0112 10.528ZM22.9392 13.975L22.5917 13.7793L22.5909 13.7806L22.9392 13.975ZM21.7692 15.262L21.9942 15.5914L21.9969 15.5895L21.7692 15.262ZM20.0952 16.018L19.9915 15.6329L19.9906 15.6331L20.0952 16.018ZM18.1782 15.8711C17.2654 15.8711 16.4535 15.7116 15.736 15.4001L15.4184 16.1319C16.249 16.4924 17.1711 16.6689 18.1782 16.6689V15.8711ZM15.7395 15.4016C15.0276 15.0846 14.4472 14.6376 13.9911 14.0607L13.3653 14.5553C13.9052 15.2384 14.5909 15.7634 15.415 16.1304L15.7395 15.4016ZM13.9937 14.0639C13.5474 13.4871 13.2595 12.7963 13.1366 11.9806L12.3478 12.0994C12.4889 13.0357 12.825 13.8569 13.3627 14.5521L13.9937 14.0639ZM12.8006 12.4346L15.3566 12.0566L15.2399 11.2674L12.6839 11.6454L12.8006 12.4346ZM14.9105 11.7558C15.1106 12.5825 15.5322 13.2421 16.1827 13.7058L16.6457 13.0562C16.1683 12.7159 15.8459 12.2295 15.6859 11.5682L14.9105 11.7558ZM16.1827 13.7058C16.8171 14.158 17.5407 14.3829 18.3402 14.3829V13.5851C17.6997 13.5851 17.1393 13.408 16.6457 13.0562L16.1827 13.7058ZM18.3402 14.3829C18.7847 14.3829 19.2173 14.3131 19.6363 14.1734L19.3841 13.4166C19.0471 13.5289 18.6997 13.5851 18.3402 13.5851V14.3829ZM19.6363 14.1734C20.065 14.0305 20.4317 13.8138 20.7227 13.5155L20.1517 12.9585C19.9627 13.1522 19.7114 13.3075 19.3841 13.4166L19.6363 14.1734ZM20.7192 13.519C21.0429 13.1954 21.2051 12.7897 21.2051 12.328H20.4074C20.4074 12.5863 20.3235 12.7866 20.1552 12.955L20.7192 13.519ZM21.2051 12.328C21.2051 12.1529 21.1771 11.9822 21.1197 11.8182L20.3667 12.0818C20.3934 12.1578 20.4074 12.2391 20.4074 12.328H21.2051ZM21.1267 11.8404C21.0744 11.6572 20.9836 11.4912 20.8606 11.3437L20.2478 11.8543C20.3049 11.9228 20.3401 11.9908 20.3597 12.0596L21.1267 11.8404ZM20.8606 11.3437C20.7311 11.1882 20.56 11.058 20.3651 10.9467L19.9693 11.6393C20.1105 11.72 20.1974 11.7938 20.2478 11.8543L20.8606 11.3437ZM20.3706 10.9499C20.1734 10.833 19.9351 10.7348 19.6641 10.651L19.4283 11.413C19.6613 11.4852 19.8371 11.561 19.9639 11.6361L20.3706 10.9499ZM19.6588 10.6493L16.2928 9.65935L16.0677 10.4247L19.4337 11.4147L19.6588 10.6493ZM16.2898 9.65848C16.0537 9.59102 15.7722 9.49369 15.4441 9.36476L15.1524 10.1072C15.4962 10.2423 15.8028 10.349 16.0706 10.4255L16.2898 9.65848ZM15.4463 9.36567C15.1558 9.24943 14.8676 9.08086 14.5822 8.85579L14.0883 9.48221C14.4268 9.74914 14.7807 9.95857 15.1501 10.1063L15.4463 9.36567ZM14.5822 8.85579C14.3202 8.64924 14.0934 8.37148 13.9057 8.01232L13.1987 8.38168C13.4311 8.82652 13.7262 9.19676 14.0883 9.48221L14.5822 8.85579ZM13.909 8.01862C13.7407 7.68207 13.6451 7.23496 13.6451 6.658H12.8474C12.8474 7.31703 12.9557 7.89593 13.1955 8.37537L13.909 8.01862ZM13.6451 6.658C13.6451 5.85704 13.8455 5.22382 14.2207 4.73043L13.5857 4.24757C13.0849 4.90618 12.8474 5.71895 12.8474 6.658H13.6451ZM14.2207 4.73043C14.6102 4.21825 15.1326 3.83192 15.8016 3.5742L15.5148 2.8298C14.7198 3.13608 14.0723 3.60774 13.5857 4.24757L14.2207 4.73043ZM15.8016 3.57419C16.4813 3.31236 17.2409 3.18114 18.0855 3.18685L18.0909 2.38915C17.1595 2.38285 16.2992 2.52764 15.5148 2.8298L15.8016 3.57419ZM18.0829 3.18682C18.9345 3.19826 19.6807 3.34377 20.3281 3.6149L20.6363 2.8791C19.8797 2.56223 19.0299 2.40174 18.0936 2.38918L18.0829 3.18682ZM20.3281 3.6149C20.9736 3.88521 21.5091 4.27686 21.9409 4.79062L22.5516 4.27738C22.0353 3.66314 21.3948 3.19679 20.6363 2.8791L20.3281 3.6149ZM21.9422 4.79223C22.3721 5.29824 22.689 5.92598 22.8861 6.6861L23.6583 6.4859C23.4354 5.62601 23.0684 4.88576 22.5502 4.27577L21.9422 4.79223ZM23.2053 6.19279L20.5593 6.64279L20.6931 7.42921L23.3391 6.97921L23.2053 6.19279ZM21.015 6.94712C20.9057 6.46889 20.7004 6.05177 20.3923 5.70786L19.7981 6.24014C20.006 6.47222 20.1547 6.7631 20.2374 7.12487L21.015 6.94712ZM20.3923 5.70786C20.0943 5.37517 19.736 5.12149 19.3216 4.94882L19.0148 5.68518C19.3204 5.81251 19.5802 5.99683 19.7981 6.24014L20.3923 5.70786ZM19.3238 4.94975C18.9237 4.78021 18.503 4.68882 18.0645 4.67533L18.0399 5.47267C18.3814 5.48318 18.7047 5.55379 19.0126 5.68425L19.3238 4.94975ZM18.0647 4.67533C17.6345 4.66189 17.2223 4.7224 16.8312 4.85963L17.0953 5.61236C17.3882 5.5096 17.7019 5.46211 18.0398 5.47266L18.0647 4.67533ZM16.8351 4.85829C16.4481 4.98958 16.1153 5.18849 15.8493 5.46185L16.4211 6.01815C16.5871 5.84751 16.8063 5.71042 17.0914 5.61371L16.8351 4.85829ZM15.8455 5.4659C15.5653 5.76208 15.4214 6.1242 15.4214 6.532H16.2191C16.2191 6.3278 16.2851 6.16192 16.425 6.01409L15.8455 5.4659ZM15.4214 6.532C15.4214 6.90325 15.5392 7.23823 15.7944 7.50222L16.368 6.94778C16.2752 6.85177 16.2191 6.72475 16.2191 6.532H15.4214ZM15.7992 7.50704C16.0161 7.72397 16.2819 7.89227 16.5872 8.01716L16.8892 7.27884C16.6665 7.18773 16.4943 7.07403 16.3632 6.94296L15.7992 7.50704ZM16.5872 8.01716C16.8676 8.13187 17.1544 8.22747 17.4475 8.30394L17.6489 7.53205C17.39 7.46452 17.1368 7.38013 16.8892 7.27884L16.5872 8.01716ZM17.4435 8.30288L19.6935 8.91488L19.9029 8.14512L17.6529 7.53312L17.4435 8.30288ZM19.695 8.91528C20.0169 9.00151 20.3772 9.11754 20.7766 9.26436L21.0518 8.51564C20.6352 8.36246 20.2515 8.23849 19.9014 8.14472L19.695 8.91528ZM20.7815 9.26612C21.1527 9.39715 21.5099 9.58353 21.8534 9.82727L22.315 9.17673C21.9145 8.89247 21.4917 8.67085 21.047 8.51388L20.7815 9.26612ZM21.8594 9.83144C22.1833 10.0526 22.4517 10.3474 22.6637 10.7238L23.3587 10.3322C23.0907 9.85657 22.7411 9.46744 22.3091 9.17256L21.8594 9.83144ZM22.6658 10.7275C22.8671 11.076 22.9814 11.5417 22.9814 12.148H23.7791C23.7791 11.4463 23.6473 10.832 23.3566 10.3285L22.6658 10.7275ZM22.9814 12.148C22.9814 12.7866 22.8469 13.3261 22.5917 13.7793L23.2867 14.1707C23.6195 13.5799 23.7791 12.9014 23.7791 12.148H22.9814ZM22.5909 13.7806C22.3329 14.2429 21.9845 14.6266 21.5416 14.9345L21.9969 15.5895C22.538 15.2134 22.9695 14.7391 23.2875 14.1694L22.5909 13.7806ZM21.5443 14.9326C21.0923 15.2413 20.5759 15.4755 19.9915 15.6329L20.1989 16.4031C20.8625 16.2245 21.4621 15.9547 21.9942 15.5914L21.5443 14.9326ZM19.9906 15.6331C19.4077 15.7916 18.804 15.8711 18.1782 15.8711V16.6689C18.8725 16.6689 19.5467 16.5804 20.1998 16.4029L19.9906 15.6331ZM24.1407 16L23.7593 15.8834L23.6018 16.3989H24.1407V16ZM28.1007 3.04V2.64114H27.8056L27.7193 2.92345L28.1007 3.04ZM31.7547 3.04L32.1362 2.92345L32.0499 2.64114H31.7547V3.04ZM35.7148 16V16.3989H36.2537L36.0962 15.8834L35.7148 16ZM33.1947 16L32.8136 16.1176L32.9004 16.3989H33.1947V16ZM29.6667 4.57V4.17114H29.1262L29.2856 4.68764L29.6667 4.57ZM30.1347 4.57L30.5164 4.68599L30.6729 4.17114H30.1347V4.57ZM26.6607 16V16.3989H26.9564L27.0424 16.116L26.6607 16ZM26.5167 13.3H26.1179V13.6989H26.5167V13.3ZM26.5167 11.014V10.6151H26.1179V11.014H26.5167ZM33.3567 11.014H33.7556V10.6151H33.3567V11.014ZM33.3567 13.3V13.6989H33.7556V13.3H33.3567ZM24.5222 16.1166L28.4822 3.15655L27.7193 2.92345L23.7593 15.8834L24.5222 16.1166ZM28.1007 3.43886H31.7547V2.64114H28.1007V3.43886ZM31.3733 3.15655L35.3333 16.1166L36.0962 15.8834L32.1362 2.92345L31.3733 3.15655ZM35.7148 15.6011H33.1947V16.3989H35.7148V15.6011ZM33.5759 15.8824L30.0479 4.45236L29.2856 4.68764L32.8136 16.1176L33.5759 15.8824ZM29.6667 4.96886H30.1347V4.17114H29.6667V4.96886ZM29.7531 4.45401L26.2791 15.884L27.0424 16.116L30.5164 4.68599L29.7531 4.45401ZM26.6607 15.6011H24.1407V16.3989H26.6607V15.6011ZM26.9156 13.3V11.014H26.1179V13.3H26.9156ZM26.5167 11.4129H33.3567V10.6151H26.5167V11.4129ZM32.9579 11.014V13.3H33.7556V11.014H32.9579ZM33.3567 12.9011H26.5167V13.6989H33.3567V12.9011ZM37.0102 16H36.6114V16.3989H37.0102V16ZM37.0102 3.04V2.64114H36.6114V3.04H37.0102ZM44.9302 3.04H45.3291V2.64114H44.9302V3.04ZM44.9302 5.488V5.88686H45.3291V5.488H44.9302ZM39.4582 5.488V5.08914H39.0594V5.488H39.4582ZM39.4582 8.296H39.0594V8.69486H39.4582V8.296ZM43.8502 8.296H44.2491V7.89714H43.8502V8.296ZM43.8502 10.744V11.1429H44.2491V10.744H43.8502ZM39.4582 10.744V10.3451H39.0594V10.744H39.4582ZM39.4582 16V16.3989H39.8571V16H39.4582ZM37.4091 16V3.04H36.6114V16H37.4091ZM37.0102 3.43886H44.9302V2.64114H37.0102V3.43886ZM44.5314 3.04V5.488H45.3291V3.04H44.5314ZM44.9302 5.08914H39.4582V5.88686H44.9302V5.08914ZM39.0594 5.488V8.296H39.8571V5.488H39.0594ZM39.4582 8.69486H43.8502V7.89714H39.4582V8.69486ZM43.4514 8.296V10.744H44.2491V8.296H43.4514ZM43.8502 10.3451H39.4582V11.1429H43.8502V10.3451ZM39.0594 10.744V16H39.8571V10.744H39.0594ZM39.4582 15.6011H37.0102V16.3989H39.4582V15.6011Z" fill="#61A3F3"/>
</svg>
