<svg width="176" height="44" viewBox="0 0 176 44" fill="current" xmlns="http://www.w3.org/2000/svg">
<path d="M30.6797 18.8496C31.7552 19.1595 32.293 19.7747 32.293 20.6953V23.0195C32.293 23.1745 33.6875 24.1816 36.4766 26.041H36.9414V24.1816C36.9414 23.334 37.0189 22.2493 37.1738 20.9277C37.0189 20.6361 36.9414 20.4036 36.9414 20.2305C37.0781 19.6471 37.6204 19.1868 38.5684 18.8496C39.7988 18.8496 40.4141 20.1621 40.4141 22.7871V23.9492L46.2109 28.1191H46.4434V27.8867L45.5137 20.9277V20.4629C45.5137 20.2988 45.901 19.9935 46.6758 19.5469C48.1159 19.5469 49.0456 21.0918 49.4648 24.1816H49.6973C50.071 24.1816 51.2285 24.1042 53.1699 23.9492C54.4095 24.1315 55.0293 24.4414 55.0293 24.8789V25.5762C54.7741 26.5332 53.0742 27.071 49.9297 27.1895L50.627 31.8379V32.0703C50.627 33.1458 50.0846 33.6836 49 33.6836C47.7604 33.0911 47.1406 31.9336 47.1406 30.2109H46.9082L46.2109 30.6758H45.0625C42.2643 28.9714 40.6374 28.1191 40.1816 28.1191C39.9355 30.7533 39.3203 32.0703 38.3359 32.0703H37.6387C36.7454 29.9375 36.1257 28.7754 35.7793 28.584C35.3145 28.584 34.0794 28.0417 32.0742 26.957V28.1191L31.8418 28.584H32.0742C31.8737 30.4434 31.4089 31.373 30.6797 31.373C29.4401 31.1816 28.8203 30.8717 28.8203 30.4434V29.7461C29.1302 24.7513 29.2852 22.0443 29.2852 21.625V20.6953C29.2852 19.7839 29.75 19.1686 30.6797 18.8496ZM74.3477 13.5176H75.0449C76.1296 13.5176 76.6719 16.5299 76.6719 22.5547C76.8268 22.5547 76.9043 22.6322 76.9043 22.7871C76.9043 22.9421 76.8268 23.0195 76.6719 23.0195C76.6719 23.6484 76.9043 25.8906 77.3691 29.7461C77.1048 30.5208 76.7174 30.9082 76.207 30.9082C74.6576 30.9082 73.8828 28.5111 73.8828 23.7168V23.252H74.1152C73.9603 22.9512 73.8828 22.7188 73.8828 22.5547C73.7279 19.7109 73.6504 17.9336 73.6504 17.2227L73.1992 16.9902C73.1992 17.6465 71.2624 18.1888 67.3887 18.6172C68.0085 19.0273 68.3184 21.502 68.3184 26.041V26.7383H69.0156C69.1979 26.7383 70.0501 26.5833 71.5723 26.2734C72.347 26.6654 72.7344 27.2806 72.7344 28.1191C72.7344 29.0762 69.64 29.7734 63.4512 30.2109C63.1777 30.056 62.8678 29.9785 62.5215 29.9785L62.0566 30.2109C59.7415 29.8464 58.584 29.3815 58.584 28.8164V28.584C58.584 27.4993 59.1992 26.957 60.4297 26.957H61.3594C60.8945 24.5417 60.6621 22.0716 60.6621 19.5469L59.9785 19.082H59.5137C59.1582 19.082 58.8483 19.1595 58.584 19.3145C57.6178 18.9954 57.0755 18.6081 56.957 18.1523V17.2227C56.957 16.293 60.3568 15.8281 67.1562 15.8281C67.1562 15.6732 68.5508 15.4408 71.3398 15.1309H72.2695L73.1992 15.8281H73.4316V14.4336C73.4316 14.1966 73.737 13.8913 74.3477 13.5176ZM63.916 19.082H63.4512V19.3145C63.4512 21.1191 63.6061 22.3542 63.916 23.0195C63.916 23.1745 63.8385 23.252 63.6836 23.252C64.0482 25.722 64.513 26.957 65.0781 26.957C65.388 26.957 65.543 26.8066 65.543 26.5059L65.3105 25.5762C65.3105 25.4212 65.388 25.3438 65.543 25.3438L65.3105 24.1816V20.0117L65.543 18.8496L63.916 19.082ZM94.6094 13.7363C95.5938 13.7363 96.5189 16.1335 97.3848 20.9277C97.6582 20.9277 98.123 22.7871 98.7793 26.5059V26.7383C98.5697 27.3672 98.1823 27.8275 97.6172 28.1191H96.6875C95.9128 28.1191 94.8327 24.5645 93.4473 17.4551C93.2103 17.4551 92.9004 16.6803 92.5176 15.1309C92.9004 14.2012 93.5977 13.7363 94.6094 13.7363ZM85.5586 14.2012C87.1445 14.2012 88.3796 16.0605 89.2637 19.7793V20.2305C89.2637 21.1784 88.416 22.1081 86.7207 23.0195H84.3965C82.8014 23.0195 81.4889 21.7845 80.459 19.3145C81.0241 15.9056 82.724 14.2012 85.5586 14.2012ZM84.3965 16.9902C83.7767 17.6829 83.4668 18.2253 83.4668 18.6172C83.7858 19.5469 84.4056 20.0117 85.3262 20.0117H85.791C86.1009 20.0117 86.2559 19.8568 86.2559 19.5469C85.946 17.8424 85.3262 16.9902 84.3965 16.9902ZM93.6797 25.5762L94.1445 26.2734V27.6543C93.7435 28.429 93.1237 28.8164 92.2852 28.8164C92.1302 28.8164 92.0527 28.7389 92.0527 28.584C91.2415 28.8939 89.6191 29.0488 87.1855 29.0488H86.4883C86.1419 29.0488 85.832 28.9714 85.5586 28.8164C85.2578 28.9714 85.0254 29.0488 84.8613 29.0488C81.1517 29.0488 79.2969 28.5065 79.2969 27.4219C79.6068 26.4648 79.9941 25.9271 80.459 25.8086C81.1426 25.8086 84.4648 25.8861 90.4258 26.041C91.9115 25.7311 92.9961 25.5762 93.6797 25.5762ZM126.314 8.95117C127.718 9.78971 129.04 13.2897 130.279 19.4512C130.051 21.0098 129.664 21.7891 129.117 21.7891H128.188C127.604 21.7891 126.98 20.0801 126.314 16.6621C124.255 17.4368 122.231 17.8242 120.244 17.8242V18.0566C121.803 19.7337 122.582 20.668 122.582 20.8594V21.3242C122.427 21.3242 122.35 21.4017 122.35 21.5566L122.814 21.7891C123.99 21.4792 125.079 21.3242 126.082 21.3242C127.331 21.8893 127.955 23.1335 127.955 25.0566C127.955 25.2116 128.033 25.2891 128.188 25.2891C128.188 25.444 128.11 25.5215 127.955 25.5215C128.156 27.8548 128.543 29.0215 129.117 29.0215C128.844 30.2702 128.297 30.8945 127.477 30.8945C124.259 31.3594 122.003 31.7467 120.709 32.0566C119.005 30.3978 118.152 27.7546 118.152 24.127C117.988 24.127 117.906 23.8945 117.906 23.4297C118.034 23.4297 118.581 22.8828 119.547 21.7891C117.842 19.4557 116.908 18.2891 116.744 18.2891C116.471 18.2891 116.083 19.1458 115.582 20.8594C114.798 22.099 114.019 22.7188 113.244 22.7188C112.469 21.5521 112.082 20.7773 112.082 20.3945C113.786 17.0312 114.639 14.6979 114.639 13.3945H114.406C112.82 13.5495 111.576 13.627 110.674 13.627C110.209 13.0254 109.977 12.3236 109.977 11.5215C109.977 10.7741 112.077 10.2272 116.279 9.88086C116.945 9.88086 117.569 10.4277 118.152 11.5215C117.833 13.2168 117.674 14.4609 117.674 15.2539L118.152 15.4863C118.772 14.7116 120.171 14.3242 122.35 14.3242C122.35 14.1237 123.439 13.8913 125.617 13.627C124.997 11.7676 124.688 10.6009 124.688 10.127C124.897 9.3431 125.439 8.95117 126.314 8.95117ZM122.582 25.0566V24.8242C121.643 25.0339 121.174 25.2663 121.174 25.5215C121.493 27.235 121.807 28.0918 122.117 28.0918H123.512L125.152 27.8594V25.2891L124.688 24.5918C124.35 24.7467 123.648 24.9017 122.582 25.0566ZM151.225 16.0742C152.501 16.0742 153.271 19.3965 153.535 26.041C153.535 27.0072 153.768 28.5521 154.232 30.6758V30.9082C153.831 31.7194 153.367 32.1842 152.838 32.3027C150.988 32.3027 150.062 29.0579 150.062 22.5684C150.062 21.8301 149.908 20.0527 149.598 17.2363C149.816 16.4616 150.359 16.0742 151.225 16.0742ZM140.096 17.0039C140.807 17.0039 141.422 18.2389 141.941 20.709C143.172 20.3991 144.102 20.2441 144.73 20.2441V18.166C144.73 17.9199 145.04 17.61 145.66 17.2363H146.125C147.401 17.2363 148.171 18.9362 148.436 22.3359C148.59 22.3359 148.9 23.8809 149.365 26.9707C149.156 27.6087 148.768 28.0736 148.203 28.3652H147.738C146.417 28.3652 145.646 26.6654 145.428 23.2656H144.266C143.126 23.2656 142.507 23.498 142.406 23.9629L142.639 25.3438C142.119 27.0482 140.962 27.9004 139.166 27.9004C139.166 28.2103 137.926 28.3652 135.447 28.3652C133.287 28.3652 132.207 25.3483 132.207 19.3145V18.6309C132.207 18.3848 132.517 18.0749 133.137 17.7012H133.834C133.989 17.7012 134.066 17.7786 134.066 17.9336C135.652 17.4688 137.662 17.1589 140.096 17.0039ZM135.215 20.709C135.525 23.7988 135.912 25.3438 136.377 25.3438C137.261 25.3438 138.191 25.1888 139.166 24.8789C138.738 21.4792 138.35 19.7793 138.004 19.7793C137.165 19.7793 136.236 20.0892 135.215 20.709ZM163.352 9.56641C164.564 9.56641 165.339 11.4212 165.676 15.1309C165.931 15.1309 166.159 15.6732 166.359 16.7578C168.064 17.5326 169.846 19 171.705 21.1602L171.938 22.3223C171.637 23.0332 171.327 23.4206 171.008 23.4844H170.078C169.54 23.4844 168.073 22.5547 165.676 20.6953C165.366 21.1784 164.746 22.6504 163.816 25.1113L164.281 25.3438H165.908L167.289 25.5762L167.754 25.3438C168.1 25.3438 168.41 25.4212 168.684 25.5762C170.26 25.4212 171.5 25.3438 172.402 25.3438H173.318C174.084 25.7448 174.471 26.0547 174.48 26.2734V28.1191C172.147 28.7389 170.37 29.1263 169.148 29.2812C169.148 29.4362 169.071 29.5137 168.916 29.5137C169.226 31.528 169.381 33.6927 169.381 36.0078C168.588 36.4727 167.813 36.7051 167.057 36.7051C166.255 36.7051 165.639 35.4701 165.211 33H165.443L165.211 32.5352V30.9082C165.211 29.5137 164.514 28.8164 163.119 28.8164C158.48 28.8164 156.16 27.9688 156.16 26.2734C156.616 25.1888 157.313 24.6465 158.252 24.6465H158.484L159.633 24.8789C161.182 21.4154 161.957 19.1732 161.957 18.1523V17.9199H158.717C157.167 17.9199 156.393 17.3001 156.393 16.0605V15.8281C156.393 14.8984 158.17 14.2786 161.725 13.9688L161.027 11.1934C161.428 10.1087 162.203 9.56641 163.352 9.56641Z" fill="current"/>
<path d="M15.5 26.0095L5.33337 36.1761L3.86462 34.7074L14.0313 24.5407C13.2917 22.947 13.8125 20.7074 15.4688 19.0511C17.4584 17.0511 20.3125 16.6761 21.8334 18.197C23.3646 19.7282 22.9896 22.5824 20.9896 24.572C19.3334 26.2282 17.0938 26.749 15.5 26.0095Z" fill="current"/>
</svg>
