<svg viewBox="0 0 126 126" fill="none" xmlns="http://www.w3.org/2000/svg">
<path d="M95.4578 0H42.0878C42.0878 0 14.5295 14.1845 14.5295 31.0516C14.5295 61.521 75.2597 73.1657 54.7026 98.783C42.0878 114.503 11.8125 125.371 11.8125 125.371H71.781C71.781 125.371 107.684 116.638 107.684 91.7964C107.684 66.9551 54.7026 52.5937 54.7026 31.0516C54.7026 9.50956 95.4578 0 95.4578 0Z" fill="#61A3F3"/>
<path d="M65.6801 79.1624L57.8726 81.1224L53.3442 73.2826L54.9057 71.6686L57.8726 69.478H60.5272V71.6686L62.2448 70.9768L63.8063 71.3227V73.2826H65.6801V75.4731L66.9293 76.8566L65.6801 79.1624Z" fill="white"/>
<path d="M65.6801 75.4731L66.9293 76.8566L65.6801 79.1624L57.8726 81.1224L53.3442 73.2826L54.9057 71.6686L57.8726 69.478H60.5272V71.6686M65.6801 75.4731L62.7133 76.8566M65.6801 75.4731V73.2826H63.8063M63.8063 73.2826L60.9956 74.4355M63.8063 73.2826V71.3227L62.2448 70.9768L60.5272 71.6686M58.8095 72.3603L60.5272 71.6686" stroke="black" stroke-width="1.77187"/>
<path d="M36.2774 60.939C36.2774 60.939 26.3579 70.837 29.279 79.1822C32.2002 87.5273 51.7911 79.1822 51.7911 79.1822M49.4625 75.4948L53.9262 82.6755L56.2551 81.8992L51.7911 74.1363L49.4625 75.4948Z" stroke="black" stroke-width="1.77187"/>
<path d="M82.7576 66.964L84.7728 60.0646L76.9655 55.9912L75.3404 57.3612L73.1289 59.9714L73.11 62.3225L75.3005 62.34L74.5966 63.8558L74.9314 65.2416L76.8912 65.2573L76.878 66.9169L79.0684 66.9344L80.443 68.0519L82.7576 66.964Z" fill="white"/>
<path d="M79.0684 66.9344L80.443 68.0519L82.7576 66.964L84.7728 60.0646L76.9655 55.9912L75.3404 57.3612L73.1289 59.9714L73.11 62.3225L75.3005 62.34M79.0684 66.9344L80.4729 64.3178M79.0684 66.9344L76.878 66.9169L76.8912 65.2573M76.8912 65.2573L78.0641 62.7771M76.8912 65.2573L74.9314 65.2416L74.5966 63.8558L75.3005 62.34M76.0044 60.8243L75.3005 62.34" stroke="black" stroke-width="1.77187"/>
<path d="M62.8527 45.6081C62.8527 45.6081 74.6267 40.2684 83.0165 42.8907C91.4063 45.5129 83.0164 54.8533 83.0164 54.8533M79.3165 52.7869L86.522 56.7488L85.7234 58.7794L77.9311 54.8125L79.3165 52.7869Z" stroke="black" stroke-width="1.77187"/>
<ellipse cx="37.0418" cy="28.9164" rx="5.43403" ry="8.73327" fill="white"/>
<ellipse cx="47.9096" cy="28.9164" rx="5.43403" ry="8.73327" fill="white"/>
<ellipse cx="38.2063" cy="30.6629" rx="2.71702" ry="3.88145" fill="#151515"/>
<ellipse cx="47.91" cy="30.6629" rx="2.71702" ry="3.88145" fill="#151515"/>
<ellipse cx="56.4495" cy="54.5345" rx="3.49331" ry="6.4044" fill="#FFA7A7"/>
<path d="M85.3668 66.08C85.494 66.0175 85.6344 65.9869 85.776 65.9907L103.476 66.4735C104.381 66.4982 104.655 67.714 103.849 68.1248L85.7471 77.3401C85.6244 77.4026 85.4886 77.4351 85.3509 77.4351H66.0273C65.1025 77.4351 64.8121 76.1861 65.6419 75.7781L85.3668 66.08Z" fill="#D1D1D1"/>
<path d="M90.6667 61.0521C90.7525 60.854 90.9087 60.6947 91.105 60.605L111.155 51.4442C111.894 51.1067 112.653 51.8719 112.309 52.6078L105.295 67.6381C105.209 67.8235 105.06 67.9726 104.875 68.0595L85.3212 77.2306C84.5929 77.5722 83.8292 76.8308 84.1491 76.0927L90.6667 61.0521Z" fill="#EEEEEE"/>
<path d="M93.7348 66.9056C93.3525 67.0879 92.996 67.1356 92.798 66.9888L93.3828 66.292C93.5209 66.379 93.7468 66.3766 93.9793 66.2657C94.2394 66.1416 94.3987 65.9807 94.4582 65.8165C94.522 65.6399 94.3813 65.6595 94.1691 65.6689L93.8541 65.6833C93.5928 65.7026 93.4016 65.5729 93.5621 65.1295C93.7478 64.6162 94.3377 63.995 94.9605 63.698C95.2994 63.5364 95.609 63.5008 95.7687 63.6455L95.2515 64.2727C95.1133 64.2129 94.9618 64.2172 94.7332 64.3263C94.5164 64.4297 94.3536 64.582 94.2957 64.7422C94.2333 64.9146 94.3908 64.8939 94.6123 64.8765L94.9239 64.8536C95.2315 64.8326 95.3562 64.9838 95.2002 65.4149C95.016 65.9241 94.4442 66.5672 93.7348 66.9056ZM96.5344 65.5702C96.1521 65.7525 95.7957 65.8002 95.5977 65.6534L96.1825 64.9566C96.3206 65.0437 96.5464 65.0412 96.779 64.9303C97.0391 64.8063 97.1984 64.6453 97.2578 64.4811C97.3217 64.3045 97.1809 64.3241 96.9688 64.3335L96.6538 64.3479C96.3924 64.3672 96.2013 64.2376 96.3617 63.7941C96.5474 63.2808 97.1374 62.6597 97.7601 62.3626C98.0991 62.201 98.4087 62.1654 98.5683 62.3101L98.0512 62.9373C97.913 62.8775 97.7614 62.8819 97.5328 62.9909C97.3161 63.0943 97.1533 63.2466 97.0954 63.4068C97.033 63.5792 97.1905 63.5585 97.412 63.5412L97.7236 63.5183C98.0312 63.4972 98.1559 63.6484 97.9999 64.0796C97.8157 64.5887 97.2439 65.2318 96.5344 65.5702ZM98.1856 64.735L100.203 61.2417L101.046 60.8394L100.85 63.4642L100.109 63.8177L100.295 62.465C100.326 62.1987 100.384 61.869 100.418 61.5945L100.402 61.6021C100.215 61.9562 100.007 62.351 99.8221 62.6906L98.9029 64.3929L98.1856 64.735ZM99.0584 63.7378L99.2634 63.1711L100.682 62.4943L100.477 63.061L99.0584 63.7378ZM101.552 63.1293L102.659 60.0702L104.531 59.1773L104.31 59.7891L103.143 60.3456L102.901 61.0149L103.902 60.5374L103.681 61.1492L102.679 61.6267L102.258 62.7928L101.552 63.1293ZM104.733 61.612L105.124 60.5321L104.957 58.974L105.706 58.6169L105.704 59.1819C105.699 59.3743 105.697 59.5521 105.694 59.7508L105.709 59.7432C105.878 59.4656 106.034 59.2145 106.2 58.9451L106.691 58.1469L107.428 57.7954L105.825 60.1975L105.435 61.2774L104.733 61.612Z" fill="black"/>
</svg>
