<svg viewBox="0 0 131 131" fill="none" xmlns="http://www.w3.org/2000/svg">
<path d="M96.3115 0V22.3435H36.6269V51.7266H85.2928V74.6822H36.6269V107.432H119.267V130.694H10.9167V0H96.3115Z" fill="#C6FD8C"/>
<path d="M45.197 22.0288C47.1355 18.9681 52.7265 14.1933 59.5826 19.5802" stroke="black" stroke-width="1.0835"/>
<path d="M73.9681 20.1924C75.9065 17.1316 81.4975 12.3569 88.3536 17.7438" stroke="black" stroke-width="1.0835"/>
<path d="M63.5615 37.3411C64.4344 37.803 67.3705 38.4497 72.1316 37.3411" stroke="black" stroke-width="1.0835"/>
<path d="M29.2812 29.9954L42.1363 37.3412" stroke="black" stroke-width="1.0835"/>
<path d="M42.1363 42.163V29.3833H62.7781C65.0558 38.2568 61.8291 42.8864 59.931 44.092C52.3386 48.143 44.9044 44.4939 42.1363 42.163Z" fill="white" stroke="black" stroke-width="1.0835"/>
<path d="M72.1316 42.163V29.3833H93.3632C95.706 38.2568 92.387 42.8864 90.4347 44.092C82.6254 48.143 74.9788 44.4939 72.1316 42.163Z" fill="white" stroke="black" stroke-width="1.0835"/>
<ellipse cx="55.9097" cy="37.6471" rx="3.36682" ry="5.20327" fill="#161616"/>
<ellipse cx="86.5171" cy="37.6471" rx="3.36682" ry="5.20327" fill="#161616"/>
<ellipse cx="72.1316" cy="68.5607" rx="1.83645" ry="3.06075" fill="#161616"/>
<path d="M32.3419 104.371C40.5039 106.31 61.3578 107.004 79.4774 94.271" stroke="black" stroke-width="1.85"/>
<path d="M88.3536 90.3381L86.8232 71.9736C91.9653 68.0559 98.148 69.525 100.597 70.7493L102.127 89.4199C96.9849 87.9507 90.8022 89.4199 88.3536 90.3381Z" fill="#D9D9D9"/>
<path d="M115.288 88.4088C110.636 86.4499 104.167 88.2047 101.515 89.327L100.29 70.9625C103.963 67.5345 110.595 68.5139 113.452 69.4321L115.288 88.4088Z" fill="#D9D9D9"/>
<path d="M41.5241 122.298H48.3334C49.3585 118.602 51.9357 113.429 54.0444 122.298C54.7766 125.631 56.7242 130.298 58.6571 122.298C59.3893 118.24 61.3808 112.559 63.4895 122.298C64.3681 125.631 66.5647 130.298 68.3219 122.298C69.0541 118.313 71.0456 112.733 73.1543 122.298H78.8653" stroke="black" stroke-width="1.0835"/>
<path d="M78.1667 99L75 92L77.375 91.3L78.9583 86.4L81.3333 85V87.1L84.5 85H86.875L86.0833 87.1H89.25L88.4583 89.9L91.625 90.6L90.8333 92.7L94 93.4L93.2083 96.2L80.5417 98.3L78.1667 99Z" fill="white"/>
<path d="M80.5417 98.3L78.1667 99L75 92L77.375 91.3M80.5417 98.3L77.375 91.3M80.5417 98.3L93.2083 96.2L94 93.4L90.8333 92.7M77.375 91.3L78.9583 86.4L81.3333 85V87.1L84.5 85H86.875L86.0833 87.1M86.0833 87.1L82.9167 89.9M86.0833 87.1H89.25L88.4583 89.9M88.4583 89.9L85.2917 92M88.4583 89.9L91.625 90.6L90.8333 92.7M90.8333 92.7L88.4583 94.1" stroke="black" stroke-width="1.85"/>
</svg>
