<svg viewBox="0 0 132 131" fill="none" xmlns="http://www.w3.org/2000/svg">
<g clip-path="url(#clip0_2433_16573)">
<path d="M30.5125 131.437V0.00600091H56.3812C56.3812 0.00600091 100.612 -1.35318 100.612 36.8392C100.612 75.0315 56.3812 75.0316 56.3812 75.0316V131.437H30.5125Z" fill="#DEA0FF" stroke="#DEA0FF" stroke-width="2.73493"/>
<ellipse cx="70.8197" cy="24.754" rx="8.76245" ry="5.03841" fill="white"/>
<ellipse cx="88.3447" cy="24.754" rx="8.76245" ry="5.03841" fill="white"/>
<ellipse cx="69.0673" cy="25.6299" rx="3.06686" ry="4.16217" fill="#161616"/>
<ellipse cx="85.7159" cy="25.6299" rx="3.06686" ry="4.16217" fill="#161616"/>
<ellipse cx="85.2778" cy="56.0799" rx="3.06686" ry="2.62874" fill="white"/>
<path d="M57.2379 102.358C59.2825 102.991 64.1523 103.667 67.2749 101.302C68.6504 100.105 72.2488 97.9224 75.6391 98.7672" stroke="black" stroke-width="1.85"/>
<path d="M72 93.9677L75.84 92.7419V87.2258L78.4 86L80.96 90.9032L84.16 89.6774L85.44 92.129L86.72 91.5161L87.36 93.3548L86.08 93.9677L86.72 95.8065L88 98.2581L79.68 103.774L75.84 105L72 93.9677Z" fill="white"/>
<path d="M75.84 92.7419L72 93.9677L75.84 105L79.68 103.774M75.84 92.7419L79.68 103.774M75.84 92.7419V87.2258L78.4 86L80.96 90.9032L84.16 89.6774L85.44 92.129M79.68 103.774L88 98.2581L86.72 95.8065M85.44 92.129L82.24 93.3548M85.44 92.129L86.72 91.5161L87.36 93.3548L86.08 93.9677M83.52 95.1935L86.08 93.9677M86.08 93.9677L86.72 95.8065M86.72 95.8065L84.8 97.0323" stroke="black" stroke-width="1.85"/>
</g>
<defs>
<clipPath id="clip0_2433_16573">
<rect width="131" height="131" fill="white" transform="translate(0.170837)"/>
</clipPath>
</defs>
</svg>
