<svg viewBox="0 0 131 131" fill="none" xmlns="http://www.w3.org/2000/svg">
<g clip-path="url(#clip0_2551_23721)">
<path d="M105.264 0H82.8663V96.4431C82.8663 100.132 79.1772 108.301 67.583 108.301C55.9887 108.301 52.8266 96.4431 52.8266 96.4431L29.3746 104.348C29.3746 104.348 39.1243 131.753 71.799 131.753C101.048 131.753 105.264 109.618 105.264 104.348V0Z" fill="#FFDF99"/>
<path d="M80.7582 30.5668C81.9879 27.9138 85.3959 24.0859 89.1904 29.9983" stroke="black" stroke-width="0.93281"/>
<path d="M92.8795 30.0397C94.1092 27.3867 97.5172 23.5588 101.312 29.4712" stroke="black" stroke-width="0.93281"/>
<path d="M84.9743 45.8501C86.7812 48.2363 91.8405 51.5769 97.6226 45.8501" stroke="black" stroke-width="0.93281"/>
<path d="M81.8123 75.8896C74.5785 72.854 60.979 63.5449 64.4512 50.593" stroke="black" stroke-width="1.85"/>
<path d="M59.5 53.7725V50.0907L56.5 46.4089V42.1134H59.5V38.4316H63.1V35.977H66.1V29.2271H68.5V42.1134H71.5V45.7952L68.5 50.0907V53.7725H59.5Z" fill="white"/>
<path d="M59.5 50.0907V53.7725H68.5V50.0907M59.5 50.0907H68.5M59.5 50.0907L56.5 46.4089V42.1134H59.5V43.9543V38.4316H63.1V42.1134V35.977H66.1V40.8861V29.2271H68.5V42.1134H71.5V45.7952L68.5 50.0907" stroke="black" stroke-width="1.85"/>
</g>
<defs>
<clipPath id="clip0_2551_23721">
<rect width="131" height="131" fill="white"/>
</clipPath>
</defs>
</svg>
