<svg viewBox="0 8 21 36" fill="none" xmlns="http://www.w3.org/2000/svg">
<path d="M10.6817 43.725C7.91056 43.725 5.62278 43.0161 3.81833 41.5983C2.03 40.1806 0.757222 38.2633 0 35.8467L6.47667 34.3C6.62167 35.1861 7.08889 35.9594 7.87833 36.62C8.66778 37.2644 9.50556 37.5867 10.3917 37.5867C11.0039 37.5867 11.6564 37.4175 12.3492 37.0792C13.0581 36.7408 13.5656 36.2011 13.8717 35.46C14.065 34.9928 14.1778 34.4208 14.21 33.7442C14.2422 33.0675 14.2583 32.2861 14.2583 31.4V8.2H20.9283V31.4C20.9283 32.5117 20.9203 33.4783 20.9042 34.3C20.9042 35.1217 20.8236 35.895 20.6625 36.62C20.5175 37.3289 20.2194 38.07 19.7683 38.8433C18.7856 40.5511 17.5047 41.7917 15.9258 42.565C14.3469 43.3383 12.5989 43.725 10.6817 43.725Z" fill="#FFDF99"/>
</svg>
