<svg width="current" height="current" viewBox="0 0 30 37" fill="none" xmlns="http://www.w3.org/2000/svg">
<path d="M15.53 36.725C12.9522 36.725 10.6242 36.2739 8.54583 35.3717C6.48361 34.4533 4.78389 33.1483 3.44667 31.4567C2.12556 29.7489 1.28778 27.7189 0.933333 25.3667L7.79667 24.3517C8.28 26.3494 9.27889 27.8881 10.7933 28.9675C12.3078 30.0469 14.0317 30.5867 15.965 30.5867C17.0444 30.5867 18.0917 30.4175 19.1067 30.0792C20.1217 29.7408 20.9514 29.2414 21.5958 28.5808C22.2564 27.9203 22.5867 27.1067 22.5867 26.14C22.5867 25.7856 22.5303 25.4472 22.4175 25.125C22.3208 24.7867 22.1517 24.4725 21.91 24.1825C21.6683 23.8925 21.3219 23.6186 20.8708 23.3608C20.4358 23.1031 19.88 22.8694 19.2033 22.66L10.165 20.0017C9.48833 19.8083 8.69889 19.5344 7.79667 19.18C6.91056 18.8256 6.04861 18.3181 5.21083 17.6575C4.37306 16.9969 3.67222 16.1269 3.10833 15.0475C2.56056 13.9519 2.28667 12.5744 2.28667 10.915C2.28667 8.57889 2.87472 6.6375 4.05083 5.09083C5.22694 3.54417 6.79778 2.39222 8.76333 1.635C10.7289 0.877777 12.9039 0.507221 15.2883 0.523333C17.6889 0.555555 19.8317 0.966388 21.7167 1.75583C23.6017 2.54528 25.1806 3.69722 26.4533 5.21167C27.7261 6.71 28.6444 8.54667 29.2083 10.7217L22.1033 11.93C21.8456 10.8022 21.3703 9.85167 20.6775 9.07833C19.9847 8.305 19.155 7.71694 18.1883 7.31417C17.2378 6.91139 16.2389 6.69389 15.1917 6.66166C14.1606 6.62944 13.1858 6.77444 12.2675 7.09667C11.3653 7.40278 10.6242 7.85389 10.0442 8.45C9.48028 9.04611 9.19833 9.755 9.19833 10.5767C9.19833 11.3339 9.43194 11.9542 9.89917 12.4375C10.3664 12.9047 10.9544 13.2833 11.6633 13.5733C12.3722 13.8633 13.0972 14.105 13.8383 14.2983L19.88 15.9417C20.7822 16.1833 21.7811 16.5056 22.8767 16.9083C23.9722 17.295 25.0194 17.8428 26.0183 18.5517C27.0333 19.2444 27.8631 20.1628 28.5075 21.3067C29.1681 22.4506 29.4983 23.9006 29.4983 25.6567C29.4983 27.5256 29.1036 29.1608 28.3142 30.5625C27.5408 31.9481 26.4936 33.1 25.1725 34.0183C23.8514 34.9206 22.3531 35.5972 20.6775 36.0483C19.0181 36.4994 17.3022 36.725 15.53 36.725Z" fill="#BCBCBC"/>
</svg>
