<svg viewBox="0 0 131 131" fill="none" xmlns="http://www.w3.org/2000/svg">
<path d="M6 131V0H36.798L66.7285 24.7252L97.5265 0H124.854V131H97.5265V36.0033L66.7285 59.8609L36.798 36.0033V131H6Z" fill="#FF979E"/>
<path d="M51.5464 94.1291L54.5828 84.5861L56.3179 85.0198L61.0894 83.7185L62.8245 84.5861L61.957 86.3212L65.8609 88.0563L66.7285 90.2251L64.5596 91.5265L64.9934 94.1291L63.2583 94.9967L63.6921 97.1655L61.957 98.4669L53.7152 94.9967L51.5464 94.1291Z" fill="white"/>
<path d="M53.7152 94.9967L51.5464 94.1291L54.5828 84.5861L56.3179 85.0198M53.7152 94.9967L56.3179 85.0198M53.7152 94.9967L61.957 98.4669L63.6921 97.1655L63.2583 94.9967M56.3179 85.0198L61.0894 83.7185L62.8245 84.5861L61.957 86.3212L65.8609 88.0563L66.7285 90.2251L64.5596 91.5265M64.5596 91.5265L61.0894 89.7914M64.5596 91.5265L64.9934 94.1291L63.2583 94.9967M63.2583 94.9967L59.7881 93.6953" stroke="black" stroke-width="1.53556"/>
<path d="M82.3444 94.1291L79.308 84.5861L77.5729 85.0198L72.8013 83.7185L71.0662 84.5861L71.9338 86.3212L68.0298 88.0563L67.1623 90.2251L69.3311 91.5265L68.8974 94.1291L70.6325 94.9967L70.1987 97.1655L71.9338 98.4669L80.1755 94.9967L82.3444 94.1291Z" fill="white"/>
<path d="M80.1755 94.9967L82.3444 94.1291L79.308 84.5861L77.5729 85.0198M80.1755 94.9967L77.5729 85.0198M80.1755 94.9967L71.9338 98.4669L70.1987 97.1655L70.6325 94.9967M77.5729 85.0198L72.8013 83.7185L71.0662 84.5861L71.9338 86.3212L68.0298 88.0563L67.1623 90.2251L69.3311 91.5265M69.3311 91.5265L72.8013 89.7914M69.3311 91.5265L68.8974 94.1291L70.6325 94.9967M70.6325 94.9967L74.1027 93.6953" stroke="black" stroke-width="1.53556"/>
<rect x="38.9669" y="23.4238" width="22.5563" height="3.4702" rx="1.7351" fill="#161616"/>
<circle cx="97.0927" cy="25.1591" r="0.86755" fill="#161616"/>
<circle cx="50.245" cy="35.5695" r="6.9404" fill="white"/>
<circle cx="50.245" cy="35.5696" r="3.4702" fill="#161616"/>
<rect x="64.1258" y="50.3179" width="5.2053" height="5.2053" rx="2.60265" fill="white"/>
<rect x="71.9338" y="23.4238" width="22.5563" height="3.4702" rx="1.7351" fill="#161616"/>
<path d="M102.298 74.6091C99.0757 78.6039 90.4002 87.3197 81.4768 90.225" stroke="black" stroke-width="1.53556"/>
<path d="M32.0265 74.6091C35.2488 78.6039 43.9243 87.3197 52.8477 90.225" stroke="black" stroke-width="1.53556"/>
<circle cx="84.947" cy="35.5695" r="6.9404" fill="white"/>
<circle cx="84.947" cy="35.5696" r="3.4702" fill="#161616"/>
</svg>
