<svg viewBox="0 0 21 21" fill="none" xmlns="http://www.w3.org/2000/svg">
<path d="M7.45147 12.871C8.19975 12.871 8.80636 13.4496 8.80636 14.1634V19.7077C8.80636 20.4214 8.19975 21 7.45147 21C6.70329 21 6.09668 20.4214 6.09668 19.7077V14.1634C6.09668 13.4497 6.70329 12.8711 7.45147 12.8711V12.871Z" fill="#A4C639"/>
<path d="M4.75002 6.0968C4.74583 6.14572 4.74219 6.19518 4.74219 6.24519V14.6299C4.74219 15.5317 5.44315 16.2581 6.31332 16.2581H14.6871C15.5574 16.2581 16.2583 15.5316 16.2583 14.6299V6.24519C16.2583 6.19518 16.2565 6.14554 16.2524 6.0968H4.75002Z" fill="#A4C639"/>
<path d="M13.3842 12.8703C14.0905 12.8703 14.663 13.449 14.663 14.1628V19.7075C14.663 20.4213 14.0905 20.9999 13.3842 20.9999C12.6781 20.9999 12.1055 20.4213 12.1055 19.7075V14.1628C12.1055 13.4491 12.6781 12.8704 13.3842 12.8704V12.8703ZM2.63326 6.95167C3.33941 6.95167 3.91194 7.53037 3.91194 8.24422V13.7889C3.91194 14.5027 3.33941 15.0814 2.63326 15.0814C1.92702 15.0814 1.35449 14.5027 1.35449 13.789V8.24431C1.3544 7.53046 1.92693 6.95167 2.63326 6.95167ZM18.3661 6.95167C19.0723 6.95167 19.6448 7.53037 19.6448 8.24422V13.7889C19.6448 14.5027 19.0723 15.0814 18.3661 15.0814C17.6599 15.0814 17.0874 14.5027 17.0874 13.789V8.24431C17.0874 7.53046 17.6599 6.95167 18.3661 6.95167ZM4.73311 5.65223C4.76867 3.07186 6.99684 0.95619 9.85699 0.677368H11.1421C14.0025 0.956281 16.2305 3.07204 16.266 5.65223H4.73311Z" fill="#A4C639"/>
<path d="M5.41895 0.677368L6.70671 2.70963M15.5802 0.677368L14.2924 2.70963" stroke="#A4C639" stroke-width="1.28631" stroke-linecap="round" stroke-linejoin="round"/>
<path d="M8.7395 3.38714C8.74054 3.7602 8.45298 4.06352 8.09713 4.06455C7.74145 4.06549 7.45222 3.76396 7.45117 3.39089V3.38714C7.45021 3.01397 7.73778 2.71075 8.09354 2.70972C8.44922 2.70869 8.73845 3.01013 8.7395 3.38338V3.38714ZM13.5479 3.38714C13.549 3.7602 13.2614 4.06352 12.9056 4.06455C12.5499 4.06549 12.2607 3.76396 12.2596 3.39089V3.38714C12.2587 3.01397 12.5462 2.71075 12.902 2.70972C13.2577 2.70869 13.5469 3.01013 13.5479 3.38338V3.38714Z" fill="white"/>
</svg>
