<svg width="21" height="21" viewBox="0 0 21 21" fill="none" xmlns="http://www.w3.org/2000/svg">
<path d="M10.0661 0H13.4805V15.7286C11.7316 16.0611 10.4441 16.1919 9.05104 16.1919C4.88078 16.1875 2.70996 14.315 2.70996 10.7188C2.70996 7.25377 5.0126 5.00499 8.58083 5.00499C9.13455 5.00499 9.55636 5.04879 10.0661 5.17999V0ZM10.1858 8.01446C9.78586 7.88319 9.45633 7.83946 9.03444 7.83946C7.30749 7.83946 6.30998 8.89818 6.30998 10.7536C6.30998 12.5601 7.26359 13.5575 9.01252 13.5575C9.39038 13.5575 9.698 13.5362 10.1858 13.4705V8.01446Z" fill="#2BA977"/>
<path d="M19.0637 5.42727V13.3023C19.0637 16.0144 18.8616 17.3186 18.2683 18.443C17.7146 19.524 16.9852 20.2056 15.4779 20.9585L12.3096 19.458C13.8168 18.754 14.5463 18.1319 15.0121 17.1825C15.4998 16.2117 15.6536 15.0873 15.6536 12.1298V5.42733L19.0637 5.42727ZM15.3095 0H18.724V3.48689H15.3095V0Z" fill="#2BA977"/>
</svg>
