<svg viewBox="0 0 21 21" fill="none" xmlns="http://www.w3.org/2000/svg">
<path d="M18.375 1.75H2.625C2.16087 1.75 1.71575 1.93437 1.38756 2.26256C1.05937 2.59075 0.875 3.03587 0.875 3.5V17.5C0.875 17.9641 1.05937 18.4092 1.38756 18.7374C1.71575 19.0656 2.16087 19.25 2.625 19.25H18.375C18.8391 19.25 19.2842 19.0656 19.6124 18.7374C19.9406 18.4092 20.125 17.9641 20.125 17.5V3.5C20.125 3.03587 19.9406 2.59075 19.6124 2.26256C19.2842 1.93437 18.8391 1.75 18.375 1.75ZM9.625 15.3125L8.3125 16.625L4.375 12.6875L8.3125 8.75L9.625 10.0625L7 12.6875L9.625 15.3125ZM12.6875 16.625L11.375 15.3125L14 12.6875L11.375 10.0625L12.6875 8.75L16.625 12.6875L12.6875 16.625ZM18.375 6.125H2.625V3.5H18.375V6.125Z" fill="white"/>
</svg>
