<svg viewBox="0 0 21 21" fill="none" xmlns="http://www.w3.org/2000/svg">
<path d="M8 18C9.656 18 11 16.88 11 15.5V13H8C6.344 13 5 14.12 5 15.5C5 16.88 6.344 18 8 18Z" fill="#0ACF83"/>
<path d="M5 10C5 8.344 6.344 7 8 7H11V13H8C6.344 13 5 11.656 5 10Z" fill="#A259FF"/>
<path d="M5 4.5C5 3.12 6.344 2 8 2H11V7H8C6.344 7 5 5.88 5 4.5Z" fill="#F24E1E"/>
<path d="M11 2H14C15.656 2 17 3.12 17 4.5C17 5.88 15.656 7 14 7H11V2Z" fill="#FF7262"/>
<path d="M17 10C17 11.656 15.656 13 14 13C12.344 13 11 11.656 11 10C11 8.344 12.344 7 14 7C15.656 7 17 8.344 17 10Z" fill="#1ABCFE"/>
</svg>
