<svg viewBox="0 0 21 21" fill="none" xmlns="http://www.w3.org/2000/svg">
<mask id="mask0_1695_9957" style="mask-type:luminance" maskUnits="userSpaceOnUse" x="1" y="0" width="18" height="21">
<path d="M18.9271 9.69021L13.2743 15.345L18.9271 20.9998H12.4677L6.81284 15.345L12.4677 9.69021H18.9271ZM12.4677 0L1.96875 10.4989L5.19949 13.7297L18.9271 0H12.4677V0Z" fill="white"/>
</mask>
<g mask="url(#mask0_1695_9957)">
<path d="M6.81445 15.345L10.0432 18.5757L18.9267 9.69019H12.4672L6.81445 15.345Z" fill="#39CEFD"/>
</g>
<mask id="mask1_1695_9957" style="mask-type:luminance" maskUnits="userSpaceOnUse" x="1" y="0" width="18" height="21">
<path d="M18.9271 9.69021L13.2743 15.345L18.9271 20.9998H12.4677L6.81284 15.345L12.4677 9.69021H18.9271ZM12.4677 0L1.96875 10.4989L5.19949 13.7297L18.9271 0H12.4677V0Z" fill="white"/>
</mask>
<g mask="url(#mask1_1695_9957)">
<path d="M12.4677 0H18.9271L5.19949 13.7297L1.96875 10.4989L12.4677 0Z" fill="#39CEFD"/>
</g>
<mask id="mask2_1695_9957" style="mask-type:luminance" maskUnits="userSpaceOnUse" x="1" y="0" width="18" height="21">
<path d="M18.9271 9.69021L13.2743 15.345L18.9271 20.9998H12.4677L6.81284 15.345L12.4677 9.69021H18.9271ZM12.4677 0L1.96875 10.4989L5.19949 13.7297L18.9271 0H12.4677V0Z" fill="white"/>
</mask>
<g mask="url(#mask2_1695_9957)">
<path d="M10.0439 18.5757L12.468 20.9978H18.9275L13.2747 15.345L10.0439 18.5757Z" fill="#03569B"/>
</g>
<mask id="mask3_1695_9957" style="mask-type:luminance" maskUnits="userSpaceOnUse" x="1" y="0" width="18" height="21">
<path d="M18.9271 9.69021L13.2743 15.345L18.9271 20.9998H12.4677L6.81284 15.345L12.4677 9.69021H18.9271ZM12.4677 0L1.96875 10.4989L5.19949 13.7297L18.9271 0H12.4677V0Z" fill="white"/>
</mask>
<g mask="url(#mask3_1695_9957)">
<path d="M14.8355 16.9159L13.2747 15.345L10.0439 18.5757L14.8355 16.9159Z" fill="url(#paint0_linear_1695_9957)"/>
</g>
<mask id="mask4_1695_9957" style="mask-type:luminance" maskUnits="userSpaceOnUse" x="1" y="0" width="18" height="21">
<path d="M18.9271 9.69021L13.2743 15.345L18.9271 20.9998H12.4677L6.81284 15.345L12.4677 9.69021H18.9271ZM12.4677 0L1.96875 10.4989L5.19949 13.7297L18.9271 0H12.4677V0Z" fill="white"/>
</mask>
<g mask="url(#mask4_1695_9957)">
<path d="M6.81445 15.3439L10.0453 12.113L13.2763 15.3439L10.0453 18.5747L6.81445 15.3439Z" fill="#16B9FD"/>
</g>
<path d="M18.9271 9.69021L13.2743 15.345L18.9271 20.9998H12.4677L6.81284 15.345L12.4677 9.69021H18.9271ZM12.4677 0L1.96875 10.4989L5.19949 13.7297L18.9271 0H12.4677Z" fill="url(#paint1_radial_1695_9957)"/>
<defs>
<linearGradient id="paint0_linear_1695_9957" x1="10.9868" y1="19.1992" x2="13.393" y2="16.793" gradientUnits="userSpaceOnUse">
<stop stop-color="#1A237E" stop-opacity="0.4"/>
<stop offset="1" stop-color="#1A237E" stop-opacity="0"/>
</linearGradient>
<radialGradient id="paint1_radial_1695_9957" cx="0" cy="0" r="1" gradientUnits="userSpaceOnUse" gradientTransform="translate(2.44517 1.43129) scale(25.6907 25.6907)">
<stop stop-color="white" stop-opacity="0.1"/>
<stop offset="1" stop-color="white" stop-opacity="0"/>
</radialGradient>
</defs>
</svg>
