<svg viewBox="0 0 21 21" xmlns="http://www.w3.org/2000/svg">
<path d="M14.869 9.45511C14.8621 8.14416 15.4354 7.15469 16.5959 6.42599C15.9466 5.4651 14.9657 4.93643 13.6706 4.83284C12.4445 4.73282 11.1044 5.57226 10.614 5.57226C10.0959 5.57226 8.90781 4.86856 7.97529 4.86856C6.04809 4.90071 4 6.45814 4 9.62657C4 10.5625 4.16578 11.5293 4.49734 12.5271C4.93943 13.8381 6.53507 17.0529 8.19979 16.9993C9.07014 16.9779 9.68491 16.3599 10.8177 16.3599C11.916 16.3599 12.4859 16.9993 13.4564 16.9993C15.135 16.9743 16.5786 14.0524 17 12.7378C14.7481 11.6412 14.869 9.52298 14.869 9.45511ZM12.9142 3.58976C13.8571 2.4324 13.7707 1.37864 13.7431 1C12.9107 1.05001 11.9471 1.58582 11.398 2.24666C10.7936 2.95393 10.4378 3.82909 10.5138 4.81498C11.4152 4.88642 12.2372 4.40776 12.9142 3.58976Z" fill="white"/>
</svg>
