<svg viewBox="0 0 21 21" fill="none" xmlns="http://www.w3.org/2000/svg">
<path d="M8.3726 16.1875C5.38155 17.0976 10.1919 18.9778 14 17.2005C13.3763 16.9364 12.9297 16.6315 12.9297 16.6315C11.2309 16.9816 10.4431 17.009 8.90163 16.8175C7.62923 16.6582 8.3726 16.1875 8.3726 16.1875ZM7.7253 14.4375C4.06575 15.6524 9.76139 17.0301 14.875 15.5345C14.3315 15.3428 13.9858 14.9922 13.9858 14.9922C11.4866 15.4736 10.0424 15.4582 8.21352 15.2694C6.79929 15.1231 7.7253 14.4375 7.7253 14.4375ZM17.9614 18.0767C17.9614 18.0767 18.568 18.4601 17.2933 18.7567C14.8695 19.32 7.20516 19.4901 5.07604 18.7792C4.31068 18.5238 5.74595 18.1693 6.19744 18.0949C6.66829 18.0166 6.93736 18.0312 6.93736 18.0312C6.0862 17.5712 1.43579 18.9344 4.57518 19.3248C13.1368 20.3899 20.1821 18.8451 17.9614 18.0767ZM8.92004 11.8157C8.92004 11.8157 5.1214 12.6741 7.57485 12.9858C8.61077 13.1178 10.6759 13.0879 12.5994 12.9346C14.1715 12.8084 15.75 12.5402 15.75 12.5402C15.75 12.5402 15.1957 12.766 14.7946 13.0266C10.9372 13.9917 3.4853 13.5427 5.6306 12.5555C7.44489 11.7211 8.92004 11.8157 8.92004 11.8157ZM15.8227 15.2033C15.8059 15.2549 15.75 15.3125 15.75 15.3125C20.5785 13.8483 18.8033 10.1513 16.4951 11.0874C16.2923 11.1704 16.1862 11.3623 16.1862 11.3623C16.1862 11.3623 16.3137 11.3028 16.5997 11.2341C17.7664 10.9535 19.438 13.0361 15.8227 15.2033ZM8.75681 20.9419C12.6665 21.1549 18.6703 20.8238 18.8125 19.25C18.8125 19.25 18.5392 19.8466 15.5813 20.3204C12.2443 20.8547 8.12859 20.7923 5.6875 20.4499C5.6875 20.4499 6.18722 20.8018 8.75681 20.9419Z" fill="#5382A1"/>
<path d="M12.6802 10.3759C9.4734 6.24823 16.1875 4.375 16.1875 4.375C11.9101 7.14623 12.7002 7.94998 13.7306 9.56763C14.8337 11.3023 12.4316 12.6875 12.4316 12.6875C12.4316 12.6875 13.6262 11.5926 12.6802 10.3759ZM13.4119 0C13.4119 0 15.7041 2.23801 11.2379 5.67945C7.6565 8.44007 10.4212 10.0141 11.2364 11.8125C9.14589 9.9715 7.61173 8.35087 8.64096 6.84253C10.1516 4.62843 14.3367 3.55495 13.4119 0Z" fill="#E76F00"/>
</svg>
