<svg viewBox="0 0 21 21" fill="none" xmlns="http://www.w3.org/2000/svg">
<g clip-path="url(#clip0_1687_9326)">
<path d="M0 0H21V21H0V0Z" fill="#F0DB4F"/>
<path d="M18.2432 14.8365C18.1151 14.0431 17.5944 13.3771 16.0522 12.7557C15.5166 12.5111 14.9193 12.3359 14.7413 11.9326C14.6781 11.6979 14.6698 11.5657 14.7097 11.4236C14.8245 10.9625 15.3785 10.8187 15.8177 10.9509C16.1005 11.0451 16.3683 11.2616 16.5297 11.607C17.2849 11.1211 17.2833 11.1244 17.8106 10.7906C17.6177 10.4931 17.5145 10.3559 17.3881 10.2287C16.9339 9.72459 16.3151 9.46511 15.3252 9.48494C15.1539 9.50643 14.9809 9.52955 14.8095 9.55105C14.3155 9.67501 13.8446 9.93283 13.5685 10.2783C12.74 11.212 12.9763 12.8466 13.9844 13.5192C14.9776 14.2597 16.4365 14.4282 16.6228 15.1207C16.8042 15.9686 15.9957 16.2429 15.1922 16.1454C14.5999 16.0231 14.2705 15.724 13.9145 15.1802C13.2591 15.5571 13.2591 15.5571 12.5853 15.9421C12.745 16.2892 12.913 16.4462 13.1809 16.747C14.4485 18.0246 17.621 17.9618 18.1899 16.0281C18.2132 15.962 18.3663 15.519 18.2432 14.8365ZM11.6886 9.5874H10.0517C10.0517 10.9922 10.045 12.3871 10.045 13.7919C10.045 14.6861 10.0916 15.5058 9.94522 15.757C9.70567 16.2512 9.08515 16.19 8.80234 16.0942C8.51454 15.9537 8.36815 15.7537 8.19846 15.4711C8.15188 15.3901 8.11694 15.3273 8.10528 15.3224C7.66112 15.5917 7.21859 15.8628 6.77441 16.1322C6.99569 16.5834 7.32173 16.9751 7.73929 17.2296C8.36314 17.6014 9.20158 17.7155 10.0783 17.5155C10.6489 17.3502 11.1413 17.0081 11.3992 16.4875C11.7718 15.805 11.692 14.9786 11.6886 14.0646C11.697 12.5739 11.6886 11.0831 11.6886 9.5874Z" fill="#323330"/>
</g>
<defs>
<clipPath id="clip0_1687_9326">
<rect width="21" height="21" rx="10.5" fill="white"/>
</clipPath>
</defs>
</svg>
