<svg viewBox="0 0 21 21" fill="none" xmlns="http://www.w3.org/2000/svg">
<path d="M10.5463 0.4375C10.2824 0.4375 10.0088 0.505916 9.78399 0.632974L2.51235 4.83567C2.04321 5.10933 1.75 5.61756 1.75 6.16489V14.5507C1.75 15.0981 2.04321 15.6063 2.51235 15.88L4.41822 16.9746C5.34672 17.4242 5.65948 17.434 6.08953 17.434C7.45784 17.434 8.24952 16.6032 8.24952 15.1567V6.87837C8.24952 6.76109 8.15178 6.66335 8.03449 6.66335H7.12554C6.99848 6.66335 6.90074 6.76109 6.90074 6.87837V15.1567C6.90074 15.8018 6.23613 16.4371 5.1708 15.8995L3.16719 14.756C3.09877 14.7071 3.05968 14.6289 3.05968 14.5507V6.16489C3.05968 6.07693 3.09877 5.99874 3.16719 5.95964L10.4388 1.76672C10.4975 1.72763 10.5952 1.72763 10.6538 1.76672L17.9255 5.95964C17.9939 5.99874 18.033 6.07693 18.033 6.16489V14.5507C18.033 14.6289 17.9939 14.7071 17.9255 14.756L10.6538 18.9489C10.5952 18.988 10.4975 18.988 10.4291 18.9489L8.5916 17.8347C8.51341 17.8054 8.43522 17.7956 8.38635 17.8249C7.86834 18.1181 7.7706 18.1768 7.29169 18.3234C7.17441 18.3625 6.98871 18.4309 7.36011 18.6361L9.78399 20.0729C10.0186 20.2097 10.2727 20.2781 10.5463 20.2781C10.82 20.2781 11.0741 20.2097 11.3087 20.0729L18.5803 15.88C19.0495 15.6063 19.3427 15.0981 19.3427 14.5507V6.16489C19.3427 5.61756 19.0495 5.10933 18.5803 4.83567L11.3087 0.632974C11.0839 0.505916 10.82 0.4375 10.5463 0.4375ZM12.5011 6.44833C10.4291 6.44833 9.18779 7.31819 9.18779 8.78425C9.18779 10.3578 10.4193 10.8172 12.4131 11.0127C14.7881 11.2472 14.9738 11.5991 14.9738 12.0682C14.9738 12.8794 14.319 13.2215 12.7943 13.2215C10.8591 13.2215 10.4486 12.7426 10.302 11.7848C10.2824 11.687 10.1945 11.6088 10.087 11.6088H9.1487C9.03141 11.6088 8.94345 11.6968 8.94345 11.8239C8.94345 13.0358 9.60806 14.5019 12.7943 14.5019C15.0911 14.5019 16.4106 13.5929 16.4106 12.0096C16.4106 10.436 15.355 10.0255 13.1168 9.72252C10.8591 9.42931 10.6343 9.27293 10.6343 8.74515C10.6343 8.30533 10.8298 7.71891 12.5011 7.71891C13.9671 7.71891 14.5438 8.04144 14.7686 9.04814C14.7881 9.14587 14.8761 9.21429 14.9738 9.21429H15.9219C15.9707 9.21429 16.0294 9.19474 16.0685 9.14587C16.1076 9.10678 16.1369 9.04814 16.1173 8.98949C15.9805 7.24977 14.8272 6.44833 12.5011 6.44833Z" fill="#8BC34A"/>
</svg>
