<svg viewBox="0 0 21 21" fill="none" xmlns="http://www.w3.org/2000/svg">
<g clip-path="url(#clip0_1687_9318)">
<path d="M10.4999 12.5132C11.5402 12.5132 12.3836 11.6024 12.3836 10.4788C12.3836 9.35528 11.5402 8.44446 10.4999 8.44446C9.45956 8.44446 8.61621 9.35528 8.61621 10.4788C8.61621 11.6024 9.45956 12.5132 10.4999 12.5132Z" fill="#00D8FF"/>
<path d="M10.5 15.1133C8.24635 15.1721 5.99835 14.8445 3.84 14.1427C2.84297 13.8019 1.91305 13.265 1.09725 12.5591C0.785948 12.318 0.526704 12.0071 0.337307 11.6478C0.147909 11.2884 0.0328422 10.8891 0 10.4773C0 9.14041 1.362 7.83017 3.6435 6.97286C5.85955 6.21321 8.17494 5.84504 10.5 5.88262C12.794 5.84805 15.0784 6.20957 17.2665 6.95345C18.2267 7.28356 19.1251 7.79452 19.92 8.46264C20.226 8.69253 20.4813 8.99217 20.668 9.34034C20.8546 9.6885 20.968 10.0767 21 10.4773C21 11.8668 19.4775 13.2749 17.025 14.15C14.9084 14.8289 12.7079 15.1538 10.5 15.1133ZM10.5 6.84992C8.27559 6.81786 6.06062 7.16786 3.93825 7.88679C1.83825 8.67697 0.897 9.75751 0.897 10.4749C0.897 11.2255 1.90875 12.4055 4.13025 13.2248C6.19505 13.8927 8.34496 14.2036 10.5 14.146C12.6123 14.1867 14.7179 13.8785 16.7438 13.2321C19.05 12.4079 20.1 11.2263 20.1 10.4773C20.0622 10.2203 19.9753 9.97456 19.8449 9.75559C19.7145 9.53661 19.5435 9.34917 19.3425 9.20511C18.6313 8.61239 17.8288 8.15954 16.9717 7.86738C14.8785 7.15868 12.6937 6.8152 10.5 6.84992Z" fill="#00D8FF"/>
<path d="M6.36434 20.322C5.99607 20.3304 5.63215 20.2411 5.30967 20.0632C4.1792 19.4116 3.78765 17.5325 4.26209 15.0356C4.78521 12.6461 5.69159 10.3569 6.94615 8.25664C8.12297 6.14959 9.62956 4.24426 11.4088 2.61289C12.1928 1.89871 13.0973 1.329 14.0802 0.930184C14.4357 0.76368 14.8236 0.677368 15.2162 0.677368C15.6088 0.677368 15.9967 0.76368 16.3522 0.930184C17.5276 1.60706 17.9168 3.68027 17.3682 6.34121C16.8289 8.60104 15.9461 10.7649 14.7504 12.7573C13.615 14.8395 12.1559 16.7282 10.4275 18.3529C9.61504 19.0951 8.6721 19.6806 7.64637 20.0798C7.23573 20.2321 6.80228 20.314 6.36434 20.322ZM7.764 8.72524C6.5673 10.7364 5.69859 12.9251 5.19046 15.2092C4.75391 17.5088 5.17309 18.8917 5.78253 19.2436C6.41408 19.6088 7.94714 19.2625 9.80861 17.6374C11.4585 16.0808 12.8513 14.2729 13.935 12.2808C15.0804 10.376 15.9272 8.30724 16.4461 6.14635C16.9624 3.64161 16.5164 2.108 15.8833 1.74353C15.646 1.65267 15.3924 1.612 15.1386 1.62409C14.8847 1.63617 14.6362 1.70075 14.4086 1.81375C13.5337 2.17454 12.7293 2.68676 12.0324 3.32684C10.3325 4.88947 8.89342 6.71351 7.76952 8.72998L7.764 8.72524Z" fill="#00D8FF"/>
<path d="M14.6194 20.322C13.5517 20.322 12.1955 19.6745 10.7833 18.4578C8.97613 16.8102 7.44678 14.8805 6.25451 12.7436C5.01788 10.6704 4.12027 8.41238 3.5957 6.05505C3.3682 5.01793 3.32605 3.9486 3.47119 2.89673C3.50475 2.50652 3.62333 2.12844 3.81858 1.78915C4.01383 1.44986 4.28099 1.15762 4.60122 0.93304C5.77302 0.253211 7.76122 0.95199 9.7904 2.75697C11.4772 4.35365 12.9097 6.2001 14.0379 8.23193C15.2737 10.2567 16.1808 12.4653 16.7251 14.7752C16.9623 15.8504 16.999 16.9603 16.833 18.0488C16.7935 18.4502 16.6679 18.8383 16.4647 19.1866C16.2615 19.5348 15.9855 19.8348 15.6557 20.0662C15.339 20.242 14.9814 20.3303 14.6194 20.322ZM7.07012 12.2683C8.21389 14.3105 9.67479 16.1572 11.398 17.7393C13.1703 19.2671 14.5761 19.5956 15.1805 19.2395C15.8109 18.8723 16.2759 17.3737 15.7968 14.9489C15.2718 12.7435 14.4019 10.6353 13.2191 8.70252C12.1425 6.75788 10.7752 4.9898 9.1647 3.4597C7.25452 1.76052 5.70525 1.38073 5.07404 1.7471C4.87731 1.90729 4.71586 2.10661 4.59989 2.33248C4.48392 2.55835 4.41595 2.80586 4.40028 3.05938C4.27498 3.99747 4.3158 4.95035 4.52085 5.87424C5.02542 8.1286 5.8863 10.2877 7.07091 12.2698L7.07012 12.2683Z" fill="#00D8FF"/>
</g>
<defs>
<clipPath id="clip0_1687_9318">
<rect width="21" height="21" fill="white"/>
</clipPath>
</defs>
</svg>
