<svg viewBox="0 0 21 21" fill="none" xmlns="http://www.w3.org/2000/svg">
<g clip-path="url(#clip0_1687_9334)">
<path d="M19.0991 1.09531C18.8037 1.80068 18.429 2.47051 17.9777 3.08565C16.003 1.11171 13.3226 0.00170898 10.5301 0.00170898C4.75358 0.00170898 0 4.75886 0 10.5413C0 13.4256 1.18156 16.1869 3.27116 18.1773L3.65955 18.5218C5.5577 20.1212 7.96184 21.0015 10.4426 21.0015C15.9346 21.0015 20.5514 16.6982 20.9426 11.2138C21.2297 8.52903 20.442 5.13341 19.0991 1.09531ZM4.76726 18.2374C4.59768 18.448 4.33785 18.571 4.06707 18.571C3.57202 18.571 3.16723 18.1636 3.16723 17.6688C3.16723 17.1739 3.57476 16.7666 4.06707 16.7666C4.27221 16.7666 4.4746 16.8376 4.63324 16.9689C5.01888 17.2805 5.07906 17.852 4.76726 18.2374ZM19.0554 15.0824C16.457 18.5464 10.9075 17.379 7.34918 17.5457C7.34918 17.5457 6.71737 17.584 6.08283 17.6879C6.08283 17.6879 6.32079 17.5868 6.62985 17.4692C9.12699 16.5998 10.3085 16.4303 11.8265 15.6511C14.6847 14.1966 17.51 11.0142 18.0981 7.70337C17.0095 10.8885 13.711 13.6252 10.7051 14.7379C8.64561 15.498 4.92589 16.2362 4.92589 16.2362L4.77546 16.1569C2.24277 14.9238 2.16619 9.43672 6.76934 7.66509C8.7851 6.88864 10.7133 7.31514 12.8905 6.79568C15.2153 6.24342 17.9039 4.49913 18.9979 2.22445C20.2232 5.86339 21.6974 11.561 19.0554 15.0824Z" fill="#77BC1F"/>
</g>
<defs>
<clipPath id="clip0_1687_9334">
<rect width="21" height="21" fill="white"/>
</clipPath>
</defs>
</svg>
