<svg viewBox="0 0 21 21" fill="none" xmlns="http://www.w3.org/2000/svg">
<path d="M17.79 3.89274C15.9927 1.34347 12.4425 0.587848 9.87597 2.2086L5.3687 5.05595C5.06549 5.24485 4.78261 5.4645 4.52525 5.71136C4.26756 5.95821 4.03667 6.23101 3.83614 6.52525C3.63561 6.8195 3.4664 7.13359 3.3311 7.46242C3.19613 7.79139 3.09592 8.13336 3.03208 8.48283C2.9788 8.77579 2.94974 9.07292 2.94586 9.37068C2.94166 9.66877 2.96265 9.96654 3.00818 10.2608C3.05371 10.5553 3.12379 10.8457 3.21743 11.1288C3.31108 11.4118 3.4283 11.6865 3.5678 11.9504C3.47183 12.095 3.38324 12.2443 3.30236 12.3977C3.22131 12.551 3.14833 12.7086 3.08342 12.8693C3.01852 13.03 2.96201 13.1939 2.91389 13.3604C2.86578 13.5269 2.82638 13.6957 2.79538 13.866C2.66657 14.5823 2.68359 15.3169 2.84543 16.0266C2.92616 16.3804 3.04209 16.7255 3.19192 17.0566C3.34176 17.3877 3.5242 17.7033 3.73733 17.9986C5.53468 20.5478 9.0845 21.3034 11.651 19.6827L16.1583 16.8472C16.4615 16.658 16.7438 16.438 17.0011 16.1908C17.2585 15.9438 17.4893 15.6711 17.6899 15.3769C17.8904 15.083 18.0596 14.7689 18.195 14.4401C18.3303 14.1116 18.4307 13.7696 18.4949 13.4203C18.5482 13.1273 18.577 12.8305 18.5808 12.5328C18.5847 12.235 18.5637 11.9372 18.5179 11.643C18.4723 11.3488 18.4023 11.0587 18.3083 10.7756C18.2143 10.4929 18.0971 10.2182 17.9576 9.95437C18.0535 9.80997 18.1423 9.66045 18.2234 9.50708C18.3041 9.35371 18.3774 9.19619 18.4423 9.03546C18.5072 8.87473 18.564 8.71079 18.6125 8.5443C18.6606 8.37813 18.7006 8.20939 18.732 8.03906C18.7959 7.68174 18.8237 7.31898 18.8153 6.95621C18.8069 6.59345 18.762 6.23261 18.6813 5.87849C18.6005 5.52469 18.4846 5.17954 18.3348 4.84847C18.1851 4.51735 18.0026 4.20181 17.79 3.90651" fill="#FF3E00"/>
<path d="M9.43521 18.2451C9.08245 18.336 8.71777 18.3729 8.35376 18.3546C7.98984 18.336 7.63075 18.263 7.28911 18.1372C6.94745 18.0116 6.6271 17.8351 6.33909 17.6137C6.05132 17.3922 5.79924 17.1286 5.59154 16.8318C5.46334 16.6541 5.35355 16.4646 5.26378 16.2654C5.17374 16.0664 5.10397 15.859 5.05549 15.6462C5.00738 15.4333 4.98025 15.2162 4.97541 14.9982C4.97057 14.7801 4.98768 14.5621 5.02643 14.3473C5.03257 14.3124 5.03967 14.2775 5.04742 14.2429C5.05485 14.208 5.06324 14.1734 5.07229 14.1391C5.081 14.1046 5.09069 14.0703 5.10103 14.036C5.11104 14.0021 5.12202 13.9682 5.13332 13.9345L5.21824 13.6774L5.44978 13.8487C5.58249 13.9448 5.71941 14.0354 5.85988 14.1199C6.00035 14.2048 6.14437 14.2835 6.29162 14.3559C6.43855 14.4286 6.58903 14.4952 6.74176 14.555C6.8945 14.6152 7.04983 14.6687 7.20741 14.7158L7.38017 14.7654L7.36467 14.9367C7.35634 15.0533 7.36858 15.1704 7.40084 15.2828C7.41666 15.3392 7.43765 15.3936 7.46316 15.4461C7.48867 15.4986 7.5187 15.5489 7.55293 15.5963C7.61565 15.6857 7.69177 15.765 7.77865 15.8316C7.86519 15.8982 7.96174 15.9514 8.06475 15.9891C8.16776 16.0269 8.27562 16.0487 8.38541 16.0541C8.49488 16.0599 8.60467 16.0487 8.71091 16.0211C8.73545 16.0147 8.75935 16.0074 8.78324 15.9991C8.80714 15.9907 8.83071 15.9818 8.85364 15.9715C8.87689 15.9616 8.89949 15.9507 8.9221 15.9389C8.94438 15.9273 8.96601 15.9148 8.98733 15.9014L13.4878 13.0537C13.543 13.0194 13.5944 12.9795 13.6412 12.9346C13.688 12.8895 13.7297 12.8398 13.7662 12.7864C13.8027 12.7329 13.833 12.6756 13.8576 12.6157C13.8818 12.5558 13.8999 12.4937 13.9115 12.4303C13.9228 12.3653 13.9276 12.2997 13.926 12.2337C13.9244 12.1681 13.916 12.1028 13.9011 12.0384C13.8866 11.9744 13.8653 11.912 13.8379 11.8518C13.8107 11.7919 13.7771 11.7349 13.7384 11.6814C13.6758 11.5921 13.5999 11.513 13.513 11.4464C13.4261 11.3798 13.3296 11.3267 13.2269 11.2889C13.124 11.2511 13.0159 11.2291 12.9062 11.2236C12.7965 11.2181 12.6867 11.2293 12.5804 11.2566C12.5562 11.263 12.532 11.2703 12.5081 11.2787C12.4842 11.287 12.4609 11.2959 12.4377 11.3059C12.4144 11.3161 12.3918 11.327 12.3696 11.3388C12.3473 11.3504 12.3253 11.3632 12.304 11.3766L10.5758 12.4646C10.5054 12.5088 10.433 12.5504 10.3594 12.5895C10.2855 12.6282 10.2105 12.6644 10.134 12.6977C10.0575 12.731 9.97965 12.7614 9.90086 12.7886C9.82207 12.8162 9.74231 12.8405 9.66158 12.8619C9.30927 12.9522 8.94535 12.9887 8.58207 12.9702C8.21879 12.9516 7.86067 12.8783 7.51967 12.7531C7.17867 12.6276 6.85898 12.4512 6.57159 12.2302C6.28419 12.0093 6.03232 11.7464 5.82468 11.4503C5.69713 11.2726 5.58766 11.0827 5.49821 10.8836C5.40844 10.6844 5.33902 10.4769 5.2909 10.2643C5.24279 10.0514 5.21631 9.83433 5.21179 9.61628C5.20694 9.39856 5.22406 9.18052 5.26313 8.966C5.33947 8.54364 5.50378 8.14169 5.74557 7.78582C5.98752 7.42995 6.30175 7.12809 6.66814 6.89956L11.1825 4.05221C11.2526 4.00802 11.3243 3.9664 11.3976 3.92734C11.4709 3.8886 11.5458 3.85242 11.6217 3.81912C11.6977 3.78581 11.7751 3.75547 11.8535 3.72819C11.9317 3.70065 12.0111 3.676 12.0915 3.65455C12.4441 3.56394 12.8087 3.5268 13.1723 3.54505C13.5363 3.56362 13.895 3.63662 14.2367 3.76245C14.5783 3.88796 14.8983 4.0647 15.1864 4.28594C15.474 4.50755 15.726 4.7713 15.9336 5.06814C16.0615 5.24552 16.1716 5.43506 16.2617 5.63422C16.3518 5.83337 16.4215 6.04052 16.4703 6.25344C16.5187 6.46636 16.5458 6.68344 16.5507 6.90148C16.5558 7.11953 16.5391 7.33757 16.5003 7.55241C16.4935 7.58763 16.4864 7.62285 16.4783 7.65775C16.4706 7.69265 16.4622 7.72755 16.4532 7.76213C16.4444 7.79703 16.4348 7.83161 16.4247 7.86586C16.4147 7.90044 16.4044 7.9347 16.3931 7.96864L16.3069 8.22575L16.077 8.05445C15.9439 7.95744 15.8067 7.86651 15.6659 7.78102C15.5251 7.69585 15.3804 7.61644 15.2329 7.54312C14.9374 7.39699 14.6301 7.27575 14.3142 7.18068L14.1411 7.13105L14.1569 6.95976C14.1617 6.90116 14.1614 6.84225 14.1559 6.78398C14.1508 6.72571 14.1401 6.66775 14.1246 6.61108C14.1088 6.55473 14.0884 6.49934 14.0629 6.44651C14.0377 6.39336 14.0077 6.34277 13.9735 6.29474C13.9105 6.20699 13.8344 6.12926 13.7478 6.06422C13.6613 5.99888 13.5652 5.94705 13.4629 5.91053C13.2574 5.83659 13.034 5.82665 12.8226 5.88203C12.7981 5.88844 12.7738 5.8958 12.7503 5.90381C12.7264 5.91213 12.7028 5.92142 12.6796 5.93134C12.6566 5.94127 12.6337 5.95247 12.6114 5.964C12.5891 5.97585 12.5672 5.98833 12.5459 6.00178L8.03698 8.84433C7.98209 8.87859 7.93074 8.91861 7.88424 8.96344C7.83774 9.00826 7.79576 9.05789 7.75927 9.11104C7.72309 9.1645 7.69247 9.22147 7.66789 9.28106C7.64335 9.34093 7.62526 9.40272 7.61364 9.46612C7.60234 9.53112 7.59749 9.59707 7.59911 9.66303C7.60298 9.79506 7.63293 9.92505 7.68726 10.0456C7.71466 10.1057 7.74786 10.1629 7.7864 10.2166C7.84872 10.305 7.92429 10.3838 8.0105 10.4497C8.09655 10.516 8.19226 10.5689 8.29435 10.6066C8.49964 10.6823 8.72325 10.6944 8.93566 10.6415C8.95988 10.6348 8.9841 10.6274 9.00799 10.6191C9.03157 10.6108 9.05514 10.6015 9.07839 10.5916C9.10153 10.5816 9.12426 10.5707 9.14652 10.5589C9.16881 10.5474 9.19076 10.5349 9.21208 10.5214L10.9403 9.43538C11.011 9.39056 11.0831 9.34829 11.157 9.30923C11.2306 9.26985 11.3059 9.23367 11.3827 9.20005C11.4593 9.16674 11.5372 9.1364 11.6162 9.10912C11.6953 9.08159 11.7754 9.05725 11.8564 9.03612C12.2091 8.94519 12.5733 8.90805 12.9372 8.92598C13.3012 8.94423 13.6599 9.01723 14.0016 9.14274C14.3429 9.26825 14.6632 9.44467 14.951 9.66623C15.239 9.88748 15.4909 10.151 15.6985 10.4478C15.8264 10.6255 15.9362 10.815 16.0263 11.0142C16.1164 11.2132 16.1862 11.4207 16.2349 11.6334C16.2833 11.846 16.3104 12.0631 16.3156 12.2811C16.3208 12.4995 16.3036 12.7175 16.2652 12.9321C16.2271 13.1427 16.1671 13.3488 16.086 13.5471C16.005 13.7455 15.9033 13.9349 15.7825 14.1122C15.662 14.2896 15.5232 14.4542 15.3682 14.6031C15.2132 14.752 15.043 14.8845 14.8602 14.9985L10.351 17.8459C10.2803 17.8904 10.208 17.9323 10.1343 17.9714C10.0604 18.0104 9.98514 18.0466 9.90829 18.0799C9.83175 18.1135 9.75393 18.1439 9.67482 18.1715C9.59602 18.199 9.51594 18.2237 9.43521 18.2451Z" fill="white"/>
</svg>
