<svg width="21" height="21" viewBox="0 0 21 21" fill="none" xmlns="http://www.w3.org/2000/svg">
<g clip-path="url(#clip0_1687_9335)">
<path d="M20.9983 5.21736C20.9982 4.75335 20.9536 4.29052 20.8652 3.83583C20.7768 3.37036 20.6265 2.92017 20.4187 2.4984C20.2016 2.08988 19.9317 1.71465 19.6167 1.3833C19.2919 1.05042 18.9145 0.778826 18.5014 0.580491C18.0936 0.36518 17.6575 0.214728 17.2074 0.134095C16.7609 0.0441103 16.2706 0.0441102 15.8241 0H4.81025C4.46669 0.0058585 4.12389 0.0359214 3.78418 0.0899849C3.44706 0.131546 3.11707 0.2218 2.80359 0.358175C2.7143 0.402285 2.58119 0.44816 2.4919 0.49227C2.19532 0.658752 1.91341 0.852418 1.64947 1.071C1.56017 1.16098 1.47088 1.20509 1.38158 1.29331C1.05321 1.61226 0.78165 1.98985 0.579589 2.40842C0.358929 2.82426 0.207917 3.27661 0.133103 3.74584C0.0667069 4.20373 0.0222834 4.66482 0 5.12737V15.7826C0.000138592 16.2467 0.0447296 16.7095 0.133103 17.1642C0.221521 17.6296 0.371812 18.0798 0.579589 18.5016C0.796731 18.9101 1.0666 19.2853 1.38158 19.6167C1.70644 19.9496 2.08378 20.2212 2.49695 20.4195C2.90469 20.6348 3.34081 20.7853 3.79092 20.8659C4.2374 20.9559 4.7277 20.9559 5.17418 21H15.8258C16.2898 20.9996 16.7529 20.9548 17.2091 20.8659C17.6592 20.7853 18.0953 20.6348 18.503 20.4195C18.9074 20.2052 19.2825 19.9352 19.6184 19.6167C19.9468 19.2978 20.2184 18.9202 20.4204 18.5016C20.6411 18.0858 20.7921 17.6334 20.8669 17.1642C20.9333 16.7063 20.9777 16.2452 21 15.7826V5.21736H20.9983Z" fill="#F05138"/>
<path d="M13.7766 15.4607C12.2602 16.336 10.1762 16.426 8.07841 15.5278C6.44283 14.8334 5.04438 13.6409 4.06445 12.1048C4.51986 12.4696 5.01739 12.7728 5.54529 13.0073C7.71127 14.0212 9.87589 13.9512 11.4004 13.0073C9.23033 11.3423 7.38781 9.17737 6.01479 7.40948C5.74384 7.11071 5.50199 6.78447 5.2928 6.43558C6.95243 7.9507 9.59201 9.86282 10.531 10.404C9.1903 8.96672 7.95826 7.42268 6.84597 5.78583C8.69492 7.66579 10.7295 9.33499 12.9154 10.7653C13.0123 10.8196 13.0873 10.8653 13.1474 10.9081C13.2115 10.7445 13.2666 10.5771 13.3125 10.4069C13.8189 8.56618 13.2402 6.47413 11.9764 4.74194C14.9026 6.5084 16.6427 9.82712 15.9139 12.6061C15.8948 12.6817 15.8743 12.7489 15.8525 12.8274L15.8784 12.8588C17.3238 14.6624 16.9266 16.5717 16.7451 16.2147C15.9603 14.6753 14.5095 15.1508 13.7766 15.4607Z" fill="#FEFEFE"/>
</g>
<defs>
<clipPath id="clip0_1687_9335">
<rect width="21" height="21" rx="10.5" fill="white"/>
</clipPath>
</defs>
</svg>
