<svg viewBox="0 0 21 21" fill="none" xmlns="http://www.w3.org/2000/svg">
<g clip-path="url(#clip0_1687_9327)">
<path d="M0 0H21V21H0V0Z" fill="#017ACB"/>
<path d="M11.7772 10.2593H12.5636V11.5921H10.4375V17.5217L10.3812 17.5368C10.3043 17.5569 9.29247 17.5569 9.07473 17.5343L8.90055 17.5192V11.5921H6.77441V10.2593L7.44812 10.2518C7.81699 10.2468 8.76478 10.2468 9.55375 10.2518C10.3427 10.2568 11.3418 10.2593 11.7772 10.2593ZM17.7791 16.8931C17.4665 17.2175 17.131 17.3985 16.5725 17.5469C16.3292 17.6123 16.2882 17.6148 15.74 17.6123C15.1918 17.6098 15.1483 17.6098 14.8819 17.5419C14.1928 17.3683 13.637 17.0289 13.2578 16.5486C13.1502 16.4128 12.9735 16.1311 12.9735 16.0959C12.9735 16.0859 12.9991 16.0632 13.0324 16.0481C13.0657 16.033 13.1349 15.9903 13.1912 15.9576C13.2476 15.9249 13.3501 15.8646 13.4192 15.8294C13.4884 15.7941 13.6882 15.6785 13.8624 15.5754C14.0366 15.4723 14.1954 15.3893 14.2133 15.3893C14.2312 15.3893 14.2645 15.4245 14.2902 15.4672C14.4439 15.7212 14.8025 16.0456 15.0561 16.1563C15.2123 16.2216 15.5582 16.2946 15.7247 16.2946C15.8784 16.2946 16.1601 16.2292 16.3113 16.1613C16.4726 16.0884 16.5546 16.0154 16.652 15.8696C16.7186 15.7665 16.7262 15.7388 16.7237 15.5427C16.7237 15.3616 16.7134 15.3113 16.6622 15.2283C16.5188 14.997 16.3241 14.8763 15.5351 14.5343C14.7205 14.1797 14.3542 13.9685 14.0571 13.6843C13.8368 13.4731 13.7932 13.4153 13.6549 13.1512C13.4756 12.8117 13.4525 12.7011 13.45 12.1956C13.4474 11.8411 13.4551 11.7254 13.4935 11.6047C13.5473 11.4236 13.7215 11.0741 13.8009 10.9861C13.9648 10.7975 14.0238 10.7396 14.139 10.6466C14.4874 10.3649 15.0305 10.1789 15.5505 10.1613C15.6094 10.1613 15.8041 10.1713 15.9859 10.1839C16.5085 10.2266 16.8646 10.3524 17.2078 10.6214C17.4665 10.8226 17.8585 11.2954 17.8201 11.3582C17.7944 11.396 16.7724 12.0649 16.7058 12.085C16.6648 12.0976 16.6366 12.0825 16.5802 12.0171C16.2319 11.6072 16.091 11.5192 15.7528 11.4991C15.512 11.484 15.384 11.5116 15.2226 11.6173C15.0535 11.7279 14.9715 11.8964 14.9715 12.1303C14.9741 12.4722 15.1073 12.6332 15.5991 12.8721C15.9168 13.0255 16.1883 13.1512 16.2088 13.1512C16.2395 13.1512 16.8979 13.4731 17.0695 13.5737C17.8687 14.0339 18.194 14.5066 18.2786 15.3214C18.3401 15.935 18.1633 16.4957 17.7791 16.8931Z" fill="white"/>
</g>
<defs>
<clipPath id="clip0_1687_9327">
<rect width="21" height="21" rx="10.5" fill="white"/>
</clipPath>
</defs>
</svg>
