<svg viewBox="0 0 21 21" fill="none" xmlns="http://www.w3.org/2000/svg">
<g clip-path="url(#clip0_1687_9338)">
<path d="M3.71875 0.00231934H17.2812C19.3375 0.00231934 21 1.7071 21 3.81564V17.1847C21 19.2932 19.3375 20.998 17.2812 20.998H3.71875C1.6625 20.998 0 19.2932 0 17.1847V3.81564C0 1.7071 1.6625 0.00231934 3.71875 0.00231934Z" fill="#470137"/>
<path d="M10.942 6.88642L8.68061 10.7126L11.0927 14.7706C11.1078 14.8015 11.1154 14.8325 11.1078 14.8634C11.1003 14.8943 11.0701 14.8711 11.0249 14.8788H9.29872C9.17811 14.8788 9.09519 14.8711 9.04243 14.7938C8.88413 14.4692 8.7183 14.1522 8.56 13.8276C8.40171 13.5107 8.22834 13.186 8.04743 12.8537C7.86652 12.5213 7.68561 12.1889 7.5047 11.8488H7.48962C7.33132 12.1812 7.15795 12.5136 6.98458 12.8459C6.81121 13.1783 6.63784 13.5107 6.472 13.8353C6.29863 14.16 6.12526 14.4924 5.95189 14.8093C5.92174 14.8866 5.86143 14.8943 5.77852 14.8943H4.12018C4.09002 14.8943 4.06741 14.9098 4.06741 14.8711C4.05987 14.8402 4.06741 14.8093 4.08249 14.7861L6.42678 10.844L4.14279 6.87869C4.12018 6.84777 4.11264 6.81686 4.12771 6.8014C4.14279 6.77821 4.17294 6.77048 4.20309 6.77048H5.9142C5.95189 6.77048 5.98958 6.77821 6.01973 6.78594C6.04988 6.8014 6.07249 6.82459 6.09511 6.8555C6.23833 7.18788 6.40416 7.52025 6.57753 7.85262C6.75844 8.185 6.93182 8.50964 7.12026 8.83428C7.30117 9.15893 7.46701 9.48357 7.6253 9.81594H7.64038C7.79867 9.47584 7.96451 9.14347 8.13034 8.81882C8.29618 8.49418 8.46955 8.16954 8.64292 7.84489C8.81629 7.52025 8.98213 7.18788 9.14796 6.87096C9.1555 6.84004 9.17057 6.80913 9.19319 6.79367C9.22334 6.77821 9.25349 6.77048 9.29118 6.77821H10.8817C10.9194 6.77048 10.9571 6.79367 10.9646 6.83232C10.9721 6.84004 10.9571 6.87096 10.942 6.88642ZM14.4245 15.0412C13.8667 15.0489 13.3089 14.9329 12.8038 14.6933C12.329 14.4692 11.937 14.0981 11.6656 13.6421C11.3867 13.1706 11.251 12.5831 11.251 11.8797C11.2435 11.3078 11.3867 10.7435 11.6656 10.2488C11.9521 9.74638 12.3666 9.32898 12.8641 9.05071C13.3918 8.74926 14.025 8.60239 14.7712 8.60239C14.8089 8.60239 14.8617 8.60239 14.9295 8.61012C14.9974 8.61785 15.0728 8.61785 15.1632 8.62558V6.18303C15.1632 6.12892 15.1858 6.098 15.2386 6.098H16.7688C16.8065 6.09027 16.8366 6.12119 16.8442 6.15211V13.5262C16.8442 13.6653 16.8517 13.8199 16.8592 13.9899C16.8743 14.1522 16.8819 14.3068 16.8894 14.4382C16.8894 14.4924 16.8668 14.5387 16.814 14.5619C16.422 14.732 16.0075 14.8556 15.5853 14.9329C15.2009 15.0025 14.8165 15.0412 14.4245 15.0412ZM15.1632 13.4952V10.0942C15.0954 10.0787 15.0275 10.0633 14.9597 10.0556C14.8768 10.0478 14.7939 10.0401 14.7109 10.0401C14.417 10.0401 14.123 10.1019 13.8592 10.2411C13.6029 10.3725 13.3843 10.5657 13.2184 10.8131C13.0526 11.0604 12.9697 11.3928 12.9697 11.7947C12.9621 12.0653 13.0074 12.3358 13.0978 12.5909C13.1732 12.7996 13.2863 12.9851 13.437 13.1397C13.5803 13.2788 13.7536 13.387 13.9496 13.4489C14.1531 13.5184 14.3642 13.5493 14.5753 13.5493C14.6883 13.5493 14.7939 13.5416 14.8918 13.5339C14.9898 13.5416 15.0728 13.5262 15.1632 13.4952Z" fill="#FF61F6"/>
</g>
<defs>
<clipPath id="clip0_1687_9338">
<rect width="21" height="21" rx="10.5" fill="white"/>
</clipPath>
</defs>
</svg>
